<svg xmlns="http://www.w3.org/2000/svg" width="14" height="16" viewBox="0 0 14 16"><g opacity="0.497"><path d="M13.874,3.008A4.047,4.047,0,0,0,11,.079a3.318,3.318,0,0,0-2.786.76,2.087,2.087,0,0,1-.328.171l.885.569a.5.5,0,0,1-.541.841L5.088.4A2.875,2.875,0,0,0,3,.079,4.047,4.047,0,0,0,.125,3.008,4.1,4.1,0,0,0,.8,6.459,6.5,6.5,0,0,1,1.931,9.813,33.373,33.373,0,0,0,2.586,14.2l.244,1.061a.951.951,0,0,0,1.85.017l1.077-4.326a1.28,1.28,0,0,1,2.485,0l1.077,4.326a.951.951,0,0,0,1.85-.017l.244-1.061a33.417,33.417,0,0,0,.654-4.385A6.5,6.5,0,0,1,13.2,6.459a4.1,4.1,0,0,0,.673-3.451Z" transform="translate(0 0)" fill="#e30a7e"/></g></svg>