<svg xmlns="http://www.w3.org/2000/svg" width="125.862" height="150" viewBox="0 0 125.862 150"><g transform="translate(-578.335 -104.101)"><g transform="translate(578.335 104.101)"><g transform="translate(0 28.223)"><path d="M666.076,183.188c4.582-14,11.5-35.161-3.734-44.777a28.514,28.514,0,0,0-15.454-4.884c-5.6,0-10.169,1.938-13.506,3.353a17.888,17.888,0,0,1-4.194,1.458,17.894,17.894,0,0,1-4.192-1.458c-3.339-1.415-7.909-3.353-13.506-3.353a28.519,28.519,0,0,0-15.455,4.884c-15.236,9.616-8.315,30.775-3.735,44.777,1.417,4.329,2.754,8.419,2.954,10.63.354,3.887-.039,8.861-.456,14.126-.663,8.367-1.347,17.017.64,24.31,3.365,12.353,14.094,21.328,14.549,21.7a5.871,5.871,0,0,0,3.445,1.341c.108.006.219.008.329.008a5.892,5.892,0,0,0,5.68-7.433c-.5-2.964-3.068-19.655.8-30.3,2.884-7.943,7.129-12.116,8.948-13.224,1.819,1.108,6.065,5.281,8.95,13.224,4.234,11.662.755,30.571.719,30.761a5.885,5.885,0,0,0,9.532,5.627c.456-.375,11.185-9.349,14.549-21.7,1.988-7.295,1.3-15.948.641-24.316-.416-5.263-.809-10.233-.457-14.121C663.321,191.607,664.659,187.517,666.076,183.188Z" transform="translate(-586.689 -133.527)" fill="#fff"/><g transform="translate(24.181 6.495)"><path d="M648.535,141.313c0,1.743-8.2,4.376-18.317,4.376s-18.317-2.634-18.317-4.376,8.2-.712,18.317-.712S648.535,139.571,648.535,141.313Z" transform="translate(-611.901 -140.299)" fill="#ececec"/></g><g transform="translate(15.849 5.983)"><path d="M603.883,139.765c-5.9,15.874,29.1,9.159,29.1,9.159S609.785,150.552,603.883,139.765Z" transform="translate(-603.213 -139.765)" fill="#ececec"/></g><g transform="translate(53.356 7.407)"><path d="M642.319,148.374s7.328.407,13.433-7.124c18.519,4.681,7.327,39.686,7.327,39.686s0-14.449-5.9-22.793A24.656,24.656,0,0,0,642.319,148.374Z" transform="translate(-642.319 -141.25)" fill="#ececec"/></g></g><g transform="translate(45.765)"><rect width="73.855" height="92.448" transform="translate(1.163 1.161)" fill="#e30a7e" opacity="0.503"/><path d="M710.585,198.873h-76.18V104.1h76.18Zm-73.856-2.324h71.532V106.425H636.729Z" transform="translate(-634.405 -104.101)" fill="#575756"/></g></g><rect width="22.079" height="2.324" transform="translate(682.118 109.896)" fill="#fff"/><rect width="4.261" height="2.324" transform="translate(675.146 109.896)" fill="#fff"/></g></svg>