<svg xmlns="http://www.w3.org/2000/svg" width="165.671" height="150" viewBox="0 0 165.671 150"><g transform="translate(-560.048 -338.548)"><g transform="translate(587.244 358.932)"><path d="M671.186,411.373c4.877-14.9,12.244-37.424-3.974-47.659-5.542-3.5-10.922-5.2-16.449-5.2-5.959,0-10.823,2.063-14.376,3.569a19.04,19.04,0,0,1-4.464,1.552,19.047,19.047,0,0,1-4.462-1.552c-3.554-1.506-8.418-3.569-14.376-3.569-5.526,0-10.908,1.7-16.45,5.2-16.217,10.234-8.85,32.756-3.975,47.659,1.508,4.61,2.931,8.962,3.144,11.315.377,4.138-.042,9.431-.485,15.035-.705,8.9-1.433,18.113.681,25.874,3.582,13.148,15,22.7,15.485,23.1a6.25,6.25,0,0,0,3.667,1.428c.115.005.233.007.35.007a6.271,6.271,0,0,0,6.045-7.912c-.536-3.153-3.266-20.919.85-32.252,3.07-8.457,7.588-12.9,9.525-14.077,1.937,1.178,6.456,5.62,9.527,14.077,4.507,12.412.8,32.538.766,32.739A6.264,6.264,0,0,0,652.36,486.7c.485-.4,11.905-9.951,15.485-23.1,2.116-7.764,1.388-16.976.682-25.882-.443-5.6-.862-10.892-.486-15.03C668.254,420.335,669.678,415.983,671.186,411.373Z" transform="translate(-586.689 -358.516)" fill="#fff"/><g transform="translate(25.738 6.913)"><path d="M650.893,366.367c0,1.855-8.728,4.658-19.5,4.658s-19.5-2.8-19.5-4.658,8.729-.757,19.5-.757S650.893,364.513,650.893,366.367Z" transform="translate(-611.901 -365.288)" fill="#ececec"/></g><g transform="translate(16.869 6.367)"><path d="M603.927,364.753c-6.281,16.9,30.978,9.748,30.978,9.748S610.208,376.236,603.927,364.753Z" transform="translate(-603.213 -364.753)" fill="#ececec"/></g><g transform="translate(56.79 7.884)"><path d="M642.319,373.822s7.8.433,14.3-7.583c19.712,4.983,7.8,42.241,7.8,42.241s0-15.38-6.282-24.261A26.243,26.243,0,0,0,642.319,373.822Z" transform="translate(-642.319 -366.239)" fill="#ececec"/></g></g><g transform="translate(635.961 375.286)"><path d="M682.691,386.31a25.813,25.813,0,1,1-36.506,0A25.815,25.815,0,0,1,682.691,386.31Z" transform="translate(-634.323 -374.448)" fill="#e30a7e" opacity="0.4"/><circle cx="25.813" cy="25.813" r="25.813" transform="translate(4.302 4.302)" fill="none"/><path d="M685.82,383.356a30.115,30.115,0,1,0-2.579,44.883L719.3,464.293l4.873-4.872-36.054-36.055A30.115,30.115,0,0,0,685.82,383.356ZM682.779,422.9a25.813,25.813,0,1,1,0-36.506A25.815,25.815,0,0,1,682.779,422.9Z" transform="translate(-634.411 -374.536)" fill="#9c9c9b"/></g><g transform="translate(560.048 338.548)"><rect width="4.594" height="33.177" transform="translate(14.414 17.664) rotate(-45.004)" fill="#e30a7e"/><rect width="4.593" height="33.178" transform="translate(0 38.362) rotate(-74.993)" fill="#e30a7e"/><rect width="4.593" height="33.178" transform="translate(33.928 1.188) rotate(-14.996)" fill="#e30a7e"/></g><path d="M660.123,404.432c-4.516-3.146-3.553-3.2-7.46.634s-6.369,7.587-2.562,11.012,8.12,2.715,12.052-.634S664.639,407.578,660.123,404.432Z" transform="translate(1.838 1.326)" fill="#575756"/><path d="M651.855,403.477c3.135-1.409,2.853-.876,2.055-4.2s-2.018-5.847-5.076-4.908-4.062,3.477-3.53,6.659S648.718,404.886,651.855,403.477Z" transform="translate(1.775 1.16)" fill="#575756"/><path d="M610.232,448.467l-3.61-3.61-10.828,10.828-10.828-10.828-3.61,3.61,10.828,10.828-10.828,10.828,3.61,3.61L595.795,462.9l10.828,10.828,3.61-3.61L599.4,459.295Z" transform="translate(0.444 2.217)" fill="#e30a7e"/></g></svg>