<svg xmlns="http://www.w3.org/2000/svg" width="131.431" height="150" viewBox="0 0 131.431 150"><g transform="translate(-113.375 -583.505)"><g transform="translate(126.741 583.505)"><path d="M222.475,644.674c5.644-17.246,14.17-43.31-4.6-55.154-6.414-4.047-12.64-6.016-19.036-6.016-6.9,0-12.525,2.386-16.636,4.13-1.885.8-4.229,1.8-5.166,1.8s-3.28-1-5.164-1.8c-4.112-1.744-9.742-4.13-16.636-4.13-6.395,0-12.623,1.968-19.037,6.016-18.768,11.844-10.242,37.908-4.6,55.154,1.745,5.334,3.392,10.37,3.639,13.093.436,4.788-.048,10.914-.561,17.4-.816,10.3-1.659,20.96.788,29.944,4.146,15.214,17.361,26.27,17.921,26.73a7.233,7.233,0,0,0,4.244,1.653c.134.007.269.009.405.009a7.257,7.257,0,0,0,7-9.156c-.62-3.651-3.779-24.21.984-37.325,3.552-9.786,8.781-14.927,11.022-16.29,2.241,1.363,7.471,6.5,11.025,16.29,5.216,14.363.93,37.655.886,37.887a7.248,7.248,0,0,0,11.741,6.931c.561-.461,13.777-11.516,17.921-26.73,2.449-8.986,1.607-19.647.789-29.953-.513-6.481-1-12.606-.562-17.394C219.082,655.045,220.73,650.008,222.475,644.674Z" transform="translate(-124.689 -583.505)" fill="#fff"/><g transform="translate(29.786 8)"><path d="M195.026,591.526c0,2.145-10.1,5.391-22.562,5.391s-22.562-3.245-22.562-5.391,10.1-.877,22.562-.877S195.026,589.38,195.026,591.526Z" transform="translate(-149.901 -590.277)" fill="#ececec"/></g><g transform="translate(19.522 7.368)"><path d="M142.039,589.742c-7.269,19.555,35.85,11.281,35.85,11.281S149.308,603.029,142.039,589.742Z" transform="translate(-141.213 -589.742)" fill="#ececec"/></g><g transform="translate(65.722 9.124)"><path d="M180.319,600s9.026.5,16.547-8.774c22.812,5.765,9.025,48.883,9.025,48.883s0-17.8-7.27-28.075A30.375,30.375,0,0,0,180.319,600Z" transform="translate(-180.319 -591.228)" fill="#ececec"/></g></g><g transform="translate(152.312 626.842)"><rect width="53.556" height="38.204" rx="2.267" transform="translate(0 0.526)" fill="#e30a7e"/><path d="M1.994,0h43.14a1.995,1.995,0,0,1,1.995,1.995V31.624a2,2,0,0,1-2,2H1.995A1.995,1.995,0,0,1,0,31.625V1.994A1.994,1.994,0,0,1,1.994,0Z" transform="translate(3.214 2.818)" fill="#f8f9fa"/><rect width="44.126" height="31.478" rx="1.868" transform="translate(4.715 3.889)" fill="#e30a7e" opacity="0.497"/><rect width="38.917" height="28.921" transform="translate(7.32 5.167)" fill="#b1b1b1"/><g transform="translate(9.061)"><path d="M169.965,650.751a7.981,7.981,0,0,1-7.982,7.98h0A7.982,7.982,0,0,1,154,650.75l0-22.582a7.979,7.979,0,0,1,7.983-7.979h0a7.978,7.978,0,0,1,7.979,7.98Z" transform="translate(-154.003 -620.188)" fill="#b1b1b1"/><path d="M154.079,628.826c0-4.013,3.881-7.181,7.894-7.179h0a7.267,7.267,0,0,1,7.267,7.268v20.561a7.267,7.267,0,0,1-7.269,7.266h0c-4.013,0-7.894-3.341-7.893-7.353Z" transform="translate(-153.99 -619.923)" fill="#d9d9d9"/></g><g transform="translate(28.608)"><path d="M186.512,650.751a7.982,7.982,0,0,1-7.983,7.98h0a7.982,7.982,0,0,1-7.98-7.982l0-22.582a7.979,7.979,0,0,1,7.982-7.979h0a7.977,7.977,0,0,1,7.979,7.98Z" transform="translate(-170.549 -620.188)" fill="#b1b1b1"/><path d="M170.625,628.826c0-4.013,3.882-7.181,7.9-7.179h0a7.267,7.267,0,0,1,7.267,7.268l0,20.561a7.266,7.266,0,0,1-7.268,7.266h0c-4.013,0-7.894-3.341-7.893-7.353Z" transform="translate(-170.535 -619.923)" fill="#d9d9d9"/></g></g><rect width="131.431" height="8.565" transform="translate(113.375 641.683)" fill="#d9d9d9"/></g></svg>