<svg xmlns="http://www.w3.org/2000/svg" width="105.379" height="150" viewBox="0 0 105.379 150"><g transform="translate(-66.475 -276.472)"><g transform="translate(120.704 326.281)"><path d="M143.07,349.124a10.509,10.509,0,0,1-1.031,3.248c2.33.076,5.895.748,7.953,3.879,1.945,2.961,1.38,7.313,1.376,7.343l0,.017a3.279,3.279,0,0,0,6.491.927l.005-.037c.119-.854.832-6.951-2.391-11.851-3.378-5.141-8.7-6.508-12.45-6.774A10.6,10.6,0,0,1,143.07,349.124Z" transform="translate(-142.039 -345.876)" fill="#e30a7e"/></g><g transform="translate(108.253 335.352)"><path d="M184.09,395.674c3.428-10.476,8.608-26.309-2.794-33.5a21.336,21.336,0,0,0-11.564-3.654,25.211,25.211,0,0,0-10.106,2.509,13.385,13.385,0,0,1-3.138,1.091,13.39,13.39,0,0,1-3.137-1.091,25.217,25.217,0,0,0-10.106-2.509,21.34,21.34,0,0,0-11.564,3.654c-11.4,7.195-6.221,23.028-2.795,33.5a49.055,49.055,0,0,1,2.21,7.955,68.411,68.411,0,0,1-.341,10.57c-.5,6.26-1.008,12.733.479,18.19,2.518,9.243,10.546,15.959,10.886,16.239a4.393,4.393,0,0,0,2.578,1c.081,0,.164.005.246.005a4.408,4.408,0,0,0,4.25-5.562c-.377-2.217-2.3-14.706.6-22.673,2.158-5.945,5.334-9.068,6.7-9.9,1.361.828,4.538,3.951,6.7,9.9,3.168,8.725.565,22.874.538,23.015a4.4,4.4,0,0,0,7.132,4.211c.341-.28,8.369-7,10.886-16.239,1.488-5.458.976-11.934.479-18.195a68.454,68.454,0,0,1-.342-10.566A49.012,49.012,0,0,1,184.09,395.674Z" transform="translate(-124.689 -358.516)" fill="#fff"/></g><g transform="translate(126.347 340.212)"><path d="M177.313,366.046c0,1.3-6.136,3.275-13.706,3.275S149.9,367.35,149.9,366.046s6.137-.533,13.706-.533S177.313,364.743,177.313,366.046Z" transform="translate(-149.901 -365.288)" fill="#ececec"/></g><g transform="translate(120.112 339.828)"><path d="M141.715,364.753c-4.416,11.879,21.777,6.853,21.777,6.853S146.13,372.825,141.715,364.753Z" transform="translate(-141.213 -364.753)" fill="#ececec"/></g><g transform="translate(148.177 340.894)"><path d="M180.319,371.57s5.483.3,10.052-5.331c13.857,3.5,5.482,29.7,5.482,29.7s0-10.812-4.417-17.055A18.449,18.449,0,0,0,180.319,371.57Z" transform="translate(-180.319 -366.239)" fill="#ececec"/></g><path d="M129.885,350.756c-1.117-.152-4.743-1.089-6.684-3.341-3.307-3.844-1.534-9.1-.964-10.518a9.175,9.175,0,0,0,2.119-16.784.18.18,0,0,0,0-.019c-.427-4.033,4-14.34-.626-26.244s-25.28-20.426-26.845-16.342,5.271,12,10.616,16.386,9.174,14.86,10.174,24.27c.035.329.067.64.1.942a9.168,9.168,0,0,0-2.218,17.1,21.547,21.547,0,0,0-.662,3.055,15.284,15.284,0,0,0,3.339,12.431c3.89,4.516,10.082,5.466,10.775,5.56a3.279,3.279,0,0,0,.878-6.5Zm-10.461-20.262A2.459,2.459,0,1,1,122.2,328.4,2.458,2.458,0,0,1,119.424,330.493Z" transform="translate(-8.522)" fill="#e30a7e"/><g transform="translate(66.475 291.953)"><path d="M125.494,344.688s-.042.078-.108.194C125.9,344.969,125.494,344.688,125.494,344.688Z" transform="translate(-83.108 -311.213)" fill="#e30a7e"/><path d="M100.791,335.841a10.249,10.249,0,0,1,1.11-6.622h0c-8.773-3.547-17.787-10.108-20.539-16.452s-8.48-15.095-12.838-14.711-1.841,22.587,8.335,30.3C86.161,335.412,96.254,334.83,100.791,335.841Z" transform="translate(-66.475 -298.043)" fill="#e30a7e"/></g></g></svg>