<svg xmlns="http://www.w3.org/2000/svg" width="104.698" height="150" viewBox="0 0 104.698 150"><g transform="translate(-355.689 -133.527)"><g transform="translate(355.689 133.527)"><path d="M453.474,194.7c5.643-17.247,14.17-43.31-4.6-55.154-6.414-4.047-12.64-6.016-19.036-6.016-6.9,0-12.525,2.388-16.636,4.13-1.886.8-4.229,1.8-5.166,1.8s-3.28-1-5.164-1.8c-4.112-1.743-9.742-4.13-16.636-4.13-6.395,0-12.623,1.968-19.037,6.016-18.768,11.845-10.241,37.907-4.6,55.154,1.745,5.333,3.392,10.37,3.639,13.093.436,4.788-.048,10.915-.561,17.4-.816,10.306-1.659,20.961.788,29.944,4.146,15.216,17.361,26.271,17.921,26.732a7.231,7.231,0,0,0,4.244,1.652c.133.007.269.009.405.009a7.257,7.257,0,0,0,7-9.156c-.62-3.65-3.779-24.21.984-37.326,3.552-9.784,8.781-14.924,11.022-16.289,2.241,1.365,7.471,6.5,11.025,16.289,5.216,14.365.93,37.656.886,37.89a7.249,7.249,0,0,0,11.741,6.931c.561-.462,13.777-11.516,17.92-26.732,2.449-8.986,1.607-19.644.789-29.952-.513-6.482-1-12.6-.562-17.394C450.081,205.067,451.729,200.03,453.474,194.7Z" transform="translate(-355.689 -133.527)" fill="#fff"/><g transform="translate(29.786 8)"><path d="M426.025,141.548c0,2.147-10.1,5.391-22.562,5.391s-22.562-3.244-22.562-5.391,10.1-.877,22.562-.877S426.025,139.4,426.025,141.548Z" transform="translate(-380.901 -140.299)" fill="#ececec"/></g><g transform="translate(19.522 7.37)"><path d="M373.039,139.765c-7.269,19.553,35.849,11.281,35.849,11.281S380.308,153.052,373.039,139.765Z" transform="translate(-372.213 -139.765)" fill="#ececec"/></g><g transform="translate(65.721 9.124)"><path d="M411.319,150.025s9.026.5,16.547-8.775c22.811,5.766,9.025,48.884,9.025,48.884s0-17.8-7.27-28.076A30.37,30.37,0,0,0,411.319,150.025Z" transform="translate(-411.319 -141.25)" fill="#ececec"/></g></g><path d="M423.849,185.628V179.72H406.128V162H400.22v17.72H382.5v5.908h17.72v17.72h5.908v-17.72Z" transform="translate(4.863 5.165)" fill="#e30a7e"/></g></svg>