<svg xmlns="http://www.w3.org/2000/svg" width="167.302" height="150" viewBox="0 0 167.302 150"><g transform="translate(-342.222 -358.516)"><g transform="translate(358.131 358.516)"><path d="M453.475,419.685c5.644-17.246,14.17-43.31-4.6-55.154-6.414-4.047-12.64-6.016-19.036-6.016-6.9,0-12.525,2.388-16.636,4.13-1.885.8-4.229,1.8-5.166,1.8s-3.28-1-5.164-1.8c-4.112-1.743-9.742-4.13-16.636-4.13-6.395,0-12.623,1.968-19.037,6.016-18.768,11.844-10.242,37.908-4.6,55.154,1.745,5.335,3.392,10.372,3.639,13.095.436,4.788-.048,10.914-.561,17.4-.816,10.305-1.659,20.962.788,29.944,4.146,15.215,17.361,26.271,17.921,26.732a7.232,7.232,0,0,0,4.244,1.653c.133.006.269.008.405.008a7.257,7.257,0,0,0,7-9.156c-.62-3.649-3.779-24.209.984-37.324,3.552-9.787,8.781-14.927,11.022-16.29,2.241,1.363,7.471,6.5,11.025,16.29,5.216,14.364.93,37.655.886,37.888a7.249,7.249,0,0,0,11.741,6.931c.561-.461,13.777-11.516,17.921-26.732,2.449-8.985,1.607-19.646.789-29.952-.513-6.482-1-12.606-.562-17.394C450.082,430.057,451.73,425.021,453.475,419.685Z" transform="translate(-355.689 -358.516)" fill="#fff"/><g transform="translate(29.786 8)"><path d="M426.026,366.537c0,2.147-10.1,5.391-22.562,5.391s-22.562-3.244-22.562-5.391,10.1-.877,22.562-.877S426.026,364.391,426.026,366.537Z" transform="translate(-380.901 -365.288)" fill="#ececec"/></g><g transform="translate(19.522 7.368)"><path d="M373.039,364.753c-7.269,19.555,35.85,11.281,35.85,11.281S380.308,378.041,373.039,364.753Z" transform="translate(-372.213 -364.753)" fill="#ececec"/></g><g transform="translate(65.722 9.124)"><path d="M411.319,375.014s9.026.5,16.547-8.775c22.812,5.766,9.025,48.884,9.025,48.884s0-17.8-7.27-28.076A30.371,30.371,0,0,0,411.319,375.014Z" transform="translate(-411.319 -366.239)" fill="#ececec"/></g></g><g transform="translate(358.863 364.471)"><path d="M370.546,363.557l-4.231,7.734-7.734,4.23,7.734,4.23,4.231,7.734,4.229-7.734,7.734-4.23-7.734-4.23Z" transform="translate(-355.895 -363.557)" fill="#e30a7e"/><path d="M362.6,385.788l-2.224,4.069-4.069,2.224,4.069,2.225,2.224,4.069,2.224-4.069,4.069-2.225-4.069-2.224Z" transform="translate(-356.308 -359.524)" fill="#e30a7e"/><path d="M383.891,380.989l-2.965,5.418-5.418,2.964,5.418,2.963,2.965,5.419,2.963-5.419,5.419-2.963-5.419-2.964Z" transform="translate(-352.825 -360.394)" fill="#e30a7e"/></g><g transform="translate(405.65 377.442)"><path d="M451.121,387.5a29.873,29.873,0,1,1-42.247,0A29.875,29.875,0,0,1,451.121,387.5Z" transform="translate(-395.146 -373.771)" fill="#e30a7e" opacity="0.4"/><circle cx="29.873" cy="29.873" r="29.873" transform="translate(4.979 4.979)" fill="none"/><path d="M455.405,384.743a34.851,34.851,0,1,0-2.984,51.941l41.725,41.725,5.639-5.638L458.06,431.046A34.851,34.851,0,0,0,455.405,384.743Zm-3.519,45.767a29.873,29.873,0,1,1,0-42.247A29.875,29.875,0,0,1,451.886,430.511Z" transform="translate(-395.911 -374.536)" fill="#9c9c9b"/></g><path d="M391.243,444.468l-3.62-3.62-26.17,26.171-15.611-15.612-3.62,3.62,19.214,19.214.017-.017.018.017Z" transform="translate(0 14.935)" fill="#e30a7e"/></g></svg>