<svg xmlns="http://www.w3.org/2000/svg" width="118.924" height="150" viewBox="0 0 118.924 150"><g transform="translate(-353.667 -541.667)"><g transform="translate(355.463 578.844)"><path d="M429.239,629.514c4.245-12.972,10.658-32.576-3.459-41.484a26.417,26.417,0,0,0-14.318-4.525c-5.187,0-9.421,1.795-12.513,3.107a16.572,16.572,0,0,1-3.886,1.351,16.578,16.578,0,0,1-3.884-1.351c-3.093-1.312-7.327-3.107-12.513-3.107a26.422,26.422,0,0,0-14.319,4.525c-14.116,8.908-7.7,28.512-3.46,41.484,1.312,4.012,2.551,7.8,2.737,9.848a84.716,84.716,0,0,1-.422,13.088c-.614,7.75-1.248,15.765.593,22.522,3.118,11.443,13.058,19.759,13.479,20.105a5.44,5.44,0,0,0,3.192,1.243c.1.005.2.007.3.007a5.458,5.458,0,0,0,5.262-6.887c-.467-2.746-2.843-18.21.74-28.074,2.672-7.36,6.6-11.227,8.291-12.253,1.686,1.025,5.619,4.893,8.292,12.253,3.923,10.8.7,28.322.666,28.5a5.452,5.452,0,0,0,8.831,5.213c.422-.346,10.363-8.662,13.479-20.105,1.842-6.759,1.208-14.777.594-22.529a84.753,84.753,0,0,1-.423-13.083C426.687,637.314,427.926,633.526,429.239,629.514Z" transform="translate(-355.689 -583.505)" fill="#fff"/><g transform="translate(22.404 6.017)"><path d="M414.842,591.216c0,1.614-7.6,4.055-16.97,4.055s-16.97-2.441-16.97-4.055,7.6-.659,16.97-.659S414.842,589.6,414.842,591.216Z" transform="translate(-380.901 -590.277)" fill="#ececec"/></g><g transform="translate(14.684 5.542)"><path d="M372.834,589.742c-5.468,14.708,26.964,8.485,26.964,8.485S378.3,599.736,372.834,589.742Z" transform="translate(-372.213 -589.742)" fill="#ececec"/></g><g transform="translate(49.433 6.863)"><path d="M411.319,597.828s6.789.378,12.446-6.6c17.158,4.336,6.788,36.767,6.788,36.767s0-13.387-5.468-21.117A22.847,22.847,0,0,0,411.319,597.828Z" transform="translate(-411.319 -591.228)" fill="#ececec"/></g></g><g transform="translate(353.667 541.667)"><path d="M468.148,541.667H428.16c-.051,0-.1.013-.147.015-.1,0-.2-.015-.3-.015H361.072a7.4,7.4,0,0,0-7.4,7.4v2.963a7.405,7.405,0,0,0,7.4,7.4h66.645a7.4,7.4,0,0,0,7.39-7.109h33.042a4.443,4.443,0,0,0,4.443-4.443V546.11A4.443,4.443,0,0,0,468.148,541.667Z" transform="translate(-353.667 -541.667)" fill="#e30a7e"/><g transform="translate(6.738 19.515)" opacity="0.496"><path d="M373.25,563.667V582.4a2,2,0,0,0,4,0V563.667Z" transform="translate(-362.587 -563.633)" fill="#e30a7e"/><path d="M436.583,563.663H433.25V582.4a2,2,0,0,0,4,0V563.629C437.029,563.649,436.808,563.663,436.583,563.663Z" transform="translate(-369.271 -563.629)" fill="#e30a7e"/><path d="M385.25,563.667V582.4a2,2,0,0,0,4,0V563.667Z" transform="translate(-363.924 -563.633)" fill="#e30a7e"/><path d="M391.25,563.667V582.4a2,2,0,0,0,4,0V563.667Z" transform="translate(-364.592 -563.633)" fill="#e30a7e"/><path d="M367.25,563.667V582.4a2,2,0,0,0,4,0V563.667Z" transform="translate(-361.918 -563.633)" fill="#e30a7e"/><path d="M361.916,563.663c-.225,0-.446-.014-.666-.034V582.4a2,2,0,0,0,4,0V563.663Z" transform="translate(-361.25 -563.629)" fill="#e30a7e"/><path d="M379.25,563.667V582.4a2,2,0,0,0,4,0V563.667Z" transform="translate(-363.255 -563.633)" fill="#e30a7e"/><path d="M415.25,563.667V582.4a2,2,0,0,0,4,0V563.667Z" transform="translate(-367.266 -563.633)" fill="#e30a7e"/><path d="M421.25,563.667V582.4a2,2,0,0,0,4,0V563.667Z" transform="translate(-367.934 -563.633)" fill="#e30a7e"/><path d="M427.25,563.667V582.4a2,2,0,0,0,4,0V563.667Z" transform="translate(-368.603 -563.633)" fill="#e30a7e"/><path d="M409.25,563.667V582.4a2,2,0,0,0,4,0V563.667Z" transform="translate(-366.598 -563.633)" fill="#e30a7e"/><path d="M403.25,563.667V582.4a2,2,0,0,0,4,0V563.667Z" transform="translate(-365.929 -563.633)" fill="#e30a7e"/><path d="M397.25,563.667V582.4a2,2,0,0,0,4,0V563.667Z" transform="translate(-365.261 -563.633)" fill="#e30a7e"/></g></g></g></svg>