<svg xmlns="http://www.w3.org/2000/svg" width="169.932" height="150" viewBox="0 0 169.932 150"><g transform="translate(-124.689 -115.056)"><g transform="translate(124.689 134.106)"><path d="M210.055,186.928c4.927-15.057,12.37-37.809-4.015-48.15-5.6-3.533-11.034-5.252-16.618-5.252-6.02,0-10.934,2.084-14.523,3.606a19.235,19.235,0,0,1-4.51,1.568,19.242,19.242,0,0,1-4.508-1.568c-3.59-1.521-8.5-3.606-14.523-3.606-5.583,0-11.02,1.718-16.619,5.252-16.384,10.34-8.941,33.093-4.016,48.15,1.523,4.656,2.961,9.053,3.177,11.43.381,4.18-.042,9.529-.49,15.19-.713,9-1.448,18.3.688,26.141,3.619,13.284,15.156,22.934,15.645,23.337a6.313,6.313,0,0,0,3.7,1.442c.117.006.235.008.354.008a6.335,6.335,0,0,0,6.108-7.993c-.541-3.187-3.3-21.135.859-32.586,3.1-8.542,7.666-13.029,9.622-14.22,1.956,1.191,6.522,5.679,9.625,14.22,4.553,12.54.812,32.873.774,33.077a6.328,6.328,0,0,0,10.25,6.051c.49-.4,12.028-10.054,15.645-23.337,2.138-7.844,1.4-17.149.689-26.148-.448-5.659-.87-11-.491-15.185C207.093,195.981,208.532,191.584,210.055,186.928Z" transform="translate(-124.689 -133.527)" fill="#fff"/><g transform="translate(26.003 6.984)"><path d="M189.294,141.389c0,1.874-8.818,4.706-19.7,4.706s-19.7-2.832-19.7-4.706,8.819-.765,19.7-.765S189.294,139.516,189.294,141.389Z" transform="translate(-149.901 -140.299)" fill="#ececec"/></g><g transform="translate(17.043 6.434)"><path d="M141.934,139.765c-6.346,17.07,31.3,9.848,31.3,9.848S148.28,151.365,141.934,139.765Z" transform="translate(-141.213 -139.765)" fill="#ececec"/></g><g transform="translate(57.374 7.965)"><path d="M180.319,148.911s7.88.437,14.445-7.661c19.914,5.034,7.878,42.675,7.878,42.675s0-15.537-6.347-24.51A26.513,26.513,0,0,0,180.319,148.911Z" transform="translate(-180.319 -141.25)" fill="#ececec"/></g></g><g transform="translate(192.976 115.056)"><path d="M205.037,132.1l9.272,13.944-6.487,1.1-6.312-9.488Z" transform="translate(-190.567 -114.521)" fill="#6c757d"/><path d="M224.107,118.63l10.283,15.46-17.038,11.324-10.272-15.46Z" transform="translate(-190.393 -114.944)" fill="#6c757d"/><path d="M224.615,118.742l-17.028,11.324,10.272,15.46L234.9,134.2Zm65.047,89.9c3.3,5.229,3.775,11.7,1.382,18.709a1.542,1.542,0,0,1-1.96.969,1.541,1.541,0,0,1-.969-1.96c2.114-6.188,1.753-11.6-1.073-16.068-3.579-5.683-10.994-9.457-20.875-10.633-6.25-.732-10.613-3.022-12.943-6.776A12.976,12.976,0,0,1,251.358,186a12.719,12.719,0,0,1-13.284-5.384L218.1,150.57a12.968,12.968,0,0,1-.743-1.32c-2.434.485-9.674,1.65-9.674,1.65a1.543,1.543,0,0,1-1.547-.66l-3.073-4.62-10.87,7.24L190.9,150.92l10.87-7.24-3.063-4.61a1.531,1.531,0,0,1-.021-1.681s5.435-8.736,5.755-8.942l19.75-13.129a1.544,1.544,0,0,1,2.145.423l11.995,18.038a1.55,1.55,0,0,1,.093,1.537,12.644,12.644,0,0,1,.887,1.155l19.967,30.043a12.716,12.716,0,0,1-3.548,17.646,13.607,13.607,0,0,1-1.227.722,10.432,10.432,0,0,0,1.361,6.384c1.815,2.919,5.4,4.7,10.674,5.322C277.358,197.878,285.578,202.158,289.662,208.645Zm-75.02-62.067-9.272-13.944-3.527,5.559,6.312,9.488Z" transform="translate(-190.9 -115.056)" fill="#e30a7e"/></g></g></svg>