<svg xmlns="http://www.w3.org/2000/svg" xmlns:xlink="http://www.w3.org/1999/xlink" width="730.485" height="517.319" viewBox="0 0 730.485 517.319"><defs><linearGradient id="a" x1="0.5" y1="1" x2="0.5" gradientUnits="objectBoundingBox"><stop offset="0" stop-color="gray" stop-opacity="0.251"/><stop offset="0.54" stop-color="gray" stop-opacity="0.122"/><stop offset="1" stop-color="gray" stop-opacity="0.102"/></linearGradient><linearGradient id="b" x1="0.5" y1="1" x2="0.5" y2="0" xlink:href="#a"/></defs><g transform="translate(0.005 0.006)"><ellipse cx="64.398" cy="10.343" rx="64.398" ry="10.343" transform="translate(178.567 496.336)" fill="#e30a7e" opacity="0.1"/><ellipse cx="80.359" cy="10.343" rx="80.359" ry="10.343" transform="translate(512.666 496.626)" fill="#e30a7e" opacity="0.1"/><path d="M60.375,396.83H127.45v91.423H65.285c-.165.938-.324,1.884-.5,2.829h62.66v73.73c-.112-.033-.211-.073-.317-.112-1.771-.7-3.529-1.441-5.287-2.234l-1.124-.509q-2.644-1.249-5.287-2.644c-.615-.324-1.229-.661-1.837-1A109.988,109.988,0,0,1,87.24,537.715c-.225-.218-.436-.449-.661-.661-1.071-1.163-2.121-2.34-3.139-3.542l-1.124-1.322c-1.2-1.474-2.366-2.987-3.5-4.521-.165-.225-.324-.449-.5-.661a98.4,98.4,0,0,1-11.368-20.554c-.093-.218-.172-.456-.258-.661q-1.361-3.5-2.412-7.072c-.3-1-.595-1.983-.846-3.02-.093-.3-.172-.6-.245-.9C59.443,480.15,59,464.929,59,449.815v-5.287c0-6.113.073-12.266.178-18.413,0-1.593.066-3.179.1-4.778q.139-6.087.4-12.174c.04-1.13.093-2.254.152-3.377a19.126,19.126,0,0,1,.1-1.943C60.084,401.489,60.216,399.156,60.375,396.83Z" transform="translate(-51.065 -173.315)" fill="#e30a7e" opacity="0.1"/><path d="M143.692,218.951H106.9a278.911,278.911,0,0,1,19.569-26.938c5.466-6.715,11.235-13.258,17.223-19.563Z" transform="translate(-67.308 -97.228)" fill="#e30a7e" opacity="0.1"/><path d="M128.264,247.09v96.135H61.4c0-.278.046-.562.066-.839.059-.76.119-1.52.185-2.274.073-.886.152-1.778.238-2.644s.178-1.923.278-2.882.192-1.93.3-2.888.211-1.917.33-2.868.225-1.917.35-2.868c.1-.793.2-1.58.311-2.373.152-1.117.311-2.24.482-3.351a3.09,3.09,0,0,1,.073-.5,228.607,228.607,0,0,1,4.924-24.136,178.5,178.5,0,0,1,8.294-24.453,183.57,183.57,0,0,1,12.478-24.03Z" transform="translate(-51.879 -122.538)" fill="#e30a7e" opacity="0.1"/><path d="M186.8,282.139v91.429H330.064V282.139Zm0,94.251v78.515c.82.172,1.632.337,2.439.476,1.1.211,2.188.4,3.3.568.211.033.43.066.661.086.436.073.886.132,1.322.192,1.1.152,2.2.278,3.3.377.522.053,1.051.1,1.58.139l1.276.1h0c.694.053,1.381.093,2.062.112.423,0,.846.04,1.282.053h4.712c.568,0,1.137,0,1.7-.053h.04a8.912,8.912,0,0,0,1.183-.053,2.776,2.776,0,0,0,.33,0,6.828,6.828,0,0,0,.978-.046h.231l2.214-.172c.727-.066,1.461-.152,2.2-.231l1.507-.178a131.821,131.821,0,0,0,18.142-3.86c13.363-3.728,26.436-8.942,39.793-12.762,17.269-4.924,36.35-7.343,53.037-1.322V376.39ZM330.064,180.353V58.634a184.174,184.174,0,0,0-46.547,5.459C247.24,73.207,214.69,92.975,186.8,118.221v62.125h7.191v2.822H186.8v96.148H330.064V183.175H223.513v-2.822Zm184.015-41.115a59.341,59.341,0,0,1-25.967-7.548C472.68,123.3,460.354,110.337,446.581,99.4c-28.617-22.781-64.108-36.528-100.517-39.938V180.353H550.581l.509-.535Zm18.631-3.3,19.754,21.678V130.25c-6.616.82-12.412,2.769-19.728,5.657ZM552.464,474.4V376.39H510.371c-.112-.416-.225-.839-.357-1.262.126.423.231.846.35,1.262H346.091v70.882c1.56,1.157,3.1,2.373,4.626,3.609h0c1.646,1.322,3.271,2.716,4.9,4.084l1.646,1.361c.786.661,1.58,1.322,2.379,1.943q2.379,1.93,4.8,3.807c.8.661,1.619,1.256,2.432,1.877a331.258,331.258,0,0,0,40.731,26.641q4.778,2.644,9.643,5.162c2.161,1.1,4.336,2.2,6.517,3.265q4.917,2.4,9.914,4.626h0a364.056,364.056,0,0,0,96.492,28.108q11.1,1.639,22.279,2.578V474.4h.661ZM346.091,183.175v96.141h206.4V183.175Zm0,98.964v91.429h206.4V282.139Zm222.42-152.008v30.52l25.213-27.665q-12.531-2.022-25.213-2.888Zm0,152.041v91.4H769.26V282.139ZM768.526,481.658l.707-105.269H568.511V535.383a359.975,359.975,0,0,0,38.795-.463h.225q9.253-.582,18.419-1.692h.139a339.2,339.2,0,0,0,94.641-25.253m87.239-210.782c-.753-1.778-1.54-3.542-2.34-5.287-1.494-3.3-3.073-6.516-4.7-9.728H785.267v91.39h39.6c-.02-25.881-6.569-52.317-16.88-76.407Zm-22.7,79.229v90.544a129.707,129.707,0,0,0,27.368-36.911c8.162-16.84,11.9-35.074,12.2-53.645Zm0-120.892v23.792h14.2A257.732,257.732,0,0,0,785.287,255.5ZM649.121,148.068c-1.044-.4-2.088-.8-3.139-1.19a286.573,286.573,0,0,0-33.911-10.191l-38.583,42.344h0l-.74.786.5.542H710.565a293.713,293.713,0,0,0-61.424-32.325Zm65.469,35.14H571.326l-2.815,2.578v93.531H769.286v-45.3a286.036,286.036,0,0,0-54.676-50.837Z" transform="translate(-94.402 -58.63)" fill="#e30a7e" opacity="0.1"/><path d="M128.264,320.46V368.1H61.4c0-.278.046-.562.066-.839.059-.76.119-1.52.185-2.273.073-.886.152-1.778.238-2.644s.178-1.923.278-2.882.192-1.93.3-2.888.211-1.917.33-2.868.225-1.917.35-2.868c.1-.793.2-1.58.311-2.373.152-1.117.311-2.24.482-3.351a3.091,3.091,0,0,1,.073-.5,228.61,228.61,0,0,1,4.924-24.136Z" transform="translate(-51.879 -147.418)" fill="#e30a7e" opacity="0.1"/><path d="M60.375,396.83H127.45v91.423H65.285c-.165.938-.324,1.884-.5,2.829h62.66v73.73c-.112-.033-.211-.073-.317-.112-1.771-.7-3.529-1.441-5.287-2.234l-1.124-.509q-2.644-1.249-5.287-2.644c-.615-.324-1.229-.661-1.837-1A109.988,109.988,0,0,1,87.24,537.715c-.225-.218-.436-.449-.661-.661-1.071-1.163-2.121-2.34-3.139-3.542l-1.124-1.322c-1.2-1.474-2.366-2.987-3.5-4.521-.165-.225-.324-.449-.5-.661a98.4,98.4,0,0,1-11.368-20.554c-.093-.218-.172-.456-.258-.661q-1.361-3.5-2.412-7.072c-.3-1-.595-1.983-.846-3.02-.093-.3-.172-.6-.245-.9C59.443,480.15,59,464.929,59,449.815v-5.287c0-6.113.073-12.266.178-18.413,0-1.593.066-3.179.1-4.778q.139-6.087.4-12.174c.04-1.13.093-2.254.152-3.377a19.126,19.126,0,0,1,.1-1.943C60.084,401.489,60.216,399.156,60.375,396.83Z" transform="translate(-51.065 -173.315)" fill="#e30a7e" opacity="0.1"/><path d="M189.993,194.97v82.375H139.56V194.97h7.191V167.08h29.516v27.89Z" transform="translate(-47.162 -56.659)" fill="#e30a7e" opacity="0.1"/><rect width="50.427" height="91.423" transform="translate(92.405 223.508)" fill="#e30a7e" opacity="0.1"/><path d="M186.8,539.44h50.433v76a131.6,131.6,0,0,1-18.142,3.853l-1.507.185c-.74.086-1.474.159-2.2.231s-1.48.126-2.214.172h-.231c-.317,0-.661.04-.972.046h-.337c-.4,0-.793.04-1.19.053h0c-.562.033-1.124.04-1.7.046h-4.679l-1.276-.046c-.661,0-1.375-.073-2.062-.119h0l-1.269-.093-1.58-.145c-1.11-.1-2.214-.225-3.3-.377l-1.322-.185-.661-.093c-1.1-.172-2.194-.357-3.3-.568-.813-.139-1.619-.311-2.439-.476Z" transform="translate(-94.402 -221.674)" fill="#e30a7e" opacity="0.1"/><rect width="41.584" height="92.097" transform="translate(416.505 128.583)" fill="#e30a7e" opacity="0.1"/><path d="M586.986,338.19v91.429H380.58V390.183H490.521v23.264H545.4V338.19Z" transform="translate(-128.891 -114.682)" fill="#e30a7e" opacity="0.1"/><path d="M634.881,636.817h-.661v59.977q-11.169-.945-22.272-2.571a364.067,364.067,0,0,1-96.531-28.168q-13.3-5.988-26.066-13.073a332.607,332.607,0,0,1-40.738-26.641q-4.864-3.727-9.6-7.627c-2.188-1.8-4.362-3.655-6.563-5.452-1.527-1.236-3.067-2.452-4.626-3.615V538.792H592.087c-.112-.423-.225-.846-.344-1.262.126.416.244.839.357,1.262H634.22v97.985C634.445,636.784,634.663,636.8,634.881,636.817Z" transform="translate(-176.131 -221.026)" fill="#e30a7e" opacity="0.1"/><path d="M890.317,225.621h-27.1V217.2h12.147V192.12q1.58.575,3.146,1.183v23.9h11.8Z" transform="translate(-323.774 -103.898)" fill="#e30a7e" opacity="0.1"/><path d="M922.078,343.225H789.051l.046.033-.06-.033H764.36v-92.1h6.992V319.2h31.955V278.886h26.4v-31.8h27.1v31.822h26.4v40.315h38.881Z" transform="translate(-290.251 -122.538)" fill="#e30a7e" opacity="0.1"/><path d="M764.36,396.82v91.429H922.078V396.82ZM964.891,595.871l.218-72.369H922.078V491.118H764.36V650.065a360.008,360.008,0,0,0,38.8-.463h.225q9.253-.582,18.419-1.692h.139a339.2,339.2,0,0,0,94.641-25.253" transform="translate(-290.251 -173.312)" fill="#e30a7e" opacity="0.1"/><path d="M1095.146,539.44h36.792c-.324,18.565-4.051,36.8-12.207,53.639a129.749,129.749,0,0,1-27.361,36.911V571.831h2.776Z" transform="translate(-401.478 -221.674)" fill="#e30a7e" opacity="0.1"/><path d="M1133.382,495.957H1096.57V419.55h19.92C1126.8,443.64,1133.349,470.076,1133.382,495.957Z" transform="translate(-402.902 -181.019)" fill="#e30a7e" opacity="0.1"/><rect width="22.279" height="28.875" transform="translate(435.817 154.186)" fill="#e30a7e" opacity="0.1"/><rect width="22.279" height="6.649" transform="translate(435.817 214.038)" fill="#e30a7e" opacity="0.1"/><rect width="22.279" height="19.397" transform="translate(435.817 223.508)" fill="#e30a7e" opacity="0.1"/><rect width="22.279" height="28.875" transform="translate(435.817 273.889)" fill="#e30a7e" opacity="0.1"/><rect width="22.279" height="28.875" transform="translate(435.817 333.74)" fill="#e30a7e" opacity="0.1"/><path d="M728.692,676.33a3.66,3.66,0,0,1,.661.04h-.661v6.708H706.42V654.17h22.272Z" transform="translate(-270.604 -260.578)" fill="#e30a7e" opacity="0.1"/><path d="M728.692,744.71v22.305q-11.169-.945-22.272-2.571V744.71Z" transform="translate(-270.604 -291.28)" fill="#e30a7e" opacity="0.1"/><rect width="95.481" height="2.121" transform="translate(251.689 312.816)" fill="#e30a7e" opacity="0.1"/><rect width="95.481" height="8.129" transform="translate(251.689 317.76)" fill="#e30a7e" opacity="0.1"/><rect width="95.481" height="13.073" transform="translate(251.689 352.536)" fill="#e30a7e" opacity="0.1"/><path d="M525.664,652.15v13.073H450.982q-4.864-3.714-9.61-7.627c-2.188-1.8-4.355-3.655-6.563-5.446Z" transform="translate(-178.501 -259.893)" fill="#e30a7e" opacity="0.1"/><path d="M554.864,712.23v13.059h-7.885q-13.291-5.994-26.059-13.079Z" transform="translate(-207.701 -280.259)" fill="#e30a7e" opacity="0.1"/><rect width="18.796" height="18.796" transform="translate(512.911 232.371)" fill="#e30a7e" opacity="0.1"/><rect width="18.796" height="18.796" transform="translate(105.94 144.795)" fill="#e30a7e" opacity="0.1"/><rect width="18.796" height="18.796" transform="translate(105.94 188.454)" fill="#e30a7e" opacity="0.1"/><rect width="18.796" height="18.796" transform="translate(105.94 232.113)" fill="#e30a7e" opacity="0.1"/><rect width="18.796" height="18.796" transform="translate(105.94 275.766)" fill="#e30a7e" opacity="0.1"/><rect width="18.796" height="18.796" transform="translate(105.94 319.425)" fill="#e30a7e" opacity="0.1"/><rect width="18.796" height="18.796" transform="translate(105.94 363.085)" fill="#e30a7e" opacity="0.1"/><rect width="18.796" height="18.796" transform="translate(584.665 232.371)" fill="#e30a7e" opacity="0.1"/><rect width="18.796" height="18.796" transform="translate(512.911 278.734)" fill="#e30a7e" opacity="0.1"/><rect width="18.796" height="18.796" transform="translate(584.665 278.734)" fill="#e30a7e" opacity="0.1"/><rect width="18.796" height="18.796" transform="translate(512.911 325.089)" fill="#e30a7e" opacity="0.1"/><rect width="18.796" height="18.796" transform="translate(584.665 325.089)" fill="#e30a7e" opacity="0.1"/><rect width="18.796" height="18.796" transform="translate(512.911 371.452)" fill="#e30a7e" opacity="0.1"/><rect width="18.796" height="18.796" transform="translate(584.665 371.452)" fill="#e30a7e" opacity="0.1"/><rect width="18.796" height="18.796" transform="translate(512.911 417.814)" fill="#e30a7e" opacity="0.1"/><rect width="18.796" height="18.796" transform="translate(584.665 417.814)" fill="#e30a7e" opacity="0.1"/><path d="M775.83,714.451V702.33h18.789v10.4Z" transform="translate(-262.919 -238.16)" fill="#e30a7e" opacity="0.1"/><path d="M65.24,357v10.753h64.326V357Zm6.411,10.079H66.4v-9.418H71.69Zm6.4,0H72.768v-9.418h5.287Zm6.391,0H79.159v-9.418h5.287Zm6.4,0H85.569v-9.418h5.287Zm6.4,0H91.96v-9.418h5.287Zm6.4,0H98.364v-9.418h5.287Zm6.4,0h-5.287v-9.418h5.287Zm6.4,0h-5.287v-9.418h5.287Zm6.4,0h-5.287v-9.418h5.287Zm6.4,0h-5.287v-9.418h5.287Z" transform="translate(-53.181 -159.809)" fill="#e30a7e" opacity="0.1"/><path d="M65.24,404.34v10.753h64.326V404.34Zm6.411,10.072H66.4v-9.391H71.69Zm6.4,0H72.768v-9.391h5.287Zm6.391,0H79.159v-9.391h5.287Zm6.4,0H85.569v-9.391h5.287Zm6.4,0H91.96v-9.391h5.287Zm6.4,0H98.364v-9.391h5.287Zm6.4,0h-5.287v-9.391h5.287Zm6.4,0h-5.287v-9.391h5.287Zm6.4,0h-5.287v-9.391h5.287Zm6.4,0h-5.287v-9.391h5.287Z" transform="translate(-53.181 -175.862)" fill="#e30a7e" opacity="0.1"/><path d="M65.24,451.7v10.773h64.326V451.7Zm6.411,10.072H66.4v-9.4H71.69Zm6.4,0H72.768v-9.4h5.287Zm6.391,0H79.159v-9.4h5.287Zm6.4,0H85.569v-9.4h5.287Zm6.4,0H91.96v-9.4h5.287Zm6.4,0H98.364v-9.4h5.287Zm6.4,0h-5.287v-9.4h5.287Zm6.4,0h-5.287v-9.4h5.287Zm6.4,0h-5.287v-9.4h5.287Zm6.4,0h-5.287v-9.4h5.287Z" transform="translate(-53.181 -191.921)" fill="#e30a7e" opacity="0.1"/><path d="M65.24,499.06V509.8h64.326V499.06Zm6.411,10.072H66.4v-9.4H71.69Zm6.4,0H72.768v-9.4h5.287Zm6.391,0H79.159v-9.4h5.287Zm6.4,0H85.569v-9.4h5.287Zm6.4,0H91.96v-9.4h5.287Zm6.4,0H98.364v-9.4h5.287Zm6.4,0h-5.287v-9.4h5.287Zm6.4,0h-5.287v-9.4h5.287Zm6.4,0h-5.287v-9.4h5.287Zm6.4,0h-5.287v-9.4h5.287Z" transform="translate(-53.181 -207.981)" fill="#e30a7e" opacity="0.1"/><path d="M65.66,546.41c.258,1.011.549,2.022.853,3.02v-2.346H71.8v9.4H68.971c.086.218.172.456.258.661h60.479V546.41Zm12.557,10.072H72.93v-9.4h5.287Zm6.391,0H79.321v-9.4h5.287Zm6.4,0h-5.3v-9.4H91Zm6.4,0H92.123v-9.4H97.41Zm6.4,0H98.527v-9.4h5.287Zm6.4,0h-5.287v-9.4h5.287Zm6.4,0h-5.287v-9.4h5.287Zm6.4,0h-5.287v-9.4h5.287Zm6.4,0h-5.287v-9.4h5.287Z" transform="translate(-53.323 -224.037)" fill="#e30a7e" opacity="0.1"/><path d="M88.26,593.77c.165.211.324.449.5.661h3.5v4.514c.377.449.747.9,1.13,1.322V594.4h5.287v9.431H96.528c.211.218.416.449.661.661h40.2V593.77Zm16.794,10.065H99.766v-9.391h5.287Zm6.4,0H106.17v-9.391h5.287Zm6.4,0h-5.287v-9.391h5.287Zm6.4,0h-5.287v-9.391h5.287Zm6.4,0H125.37v-9.391h5.287Zm6.4,0h-5.287v-9.391h5.287Z" transform="translate(-60.987 -240.097)" fill="#e30a7e" opacity="0.1"/><path d="M141.65,641.12c.6.344,1.216.661,1.837,1v-.33h5.287v2.974l1.124.522v-3.5h5.287v5.717a1.653,1.653,0,0,0,.317.119v-6.51Z" transform="translate(-79.091 -256.153)" fill="#e30a7e" opacity="0.1"/><path d="M596.905,341.763ZM556.194,536.822Zm-42.476-99.248c.126.423.231.846.35,1.262h0C513.962,438.42,513.849,438,513.717,437.574Zm83.188-95.831ZM197.72,242.78V245.6h29.523V242.78ZM556.194,536.822Zm-42.476-99.248c.126.423.231.846.35,1.262h0C513.962,438.42,513.849,438,513.717,437.574Zm83.188-95.831ZM556.194,536.8Zm-42.476-99.228c.126.423.231.846.35,1.262h0C513.962,438.42,513.849,438,513.717,437.574Z" transform="translate(-98.105 -121.077)" fill="#e30a7e" opacity="0.1"/><path d="M436.538,363.651s-2.6-.363-2.6-4.157-1.864-10.878-1.864-10.878h0c0-.033-1.613-12.339-3.84-14.3s-5.089-13.443-5.089-13.443-.489-6.232-1.487-7.574-2.346-4.626-4.336-9.312-10.284-7.931-10.284-7.931-15-8.7-19.245-11.533h0a6.518,6.518,0,0,1-1.077-.813c-.74-.972-3.965-.991-3.965-.991a64.97,64.97,0,0,1-.767-6.787,5.161,5.161,0,0,0-.033-.714A22.867,22.867,0,0,0,392,262.784c.079-.251.145-.516.218-.767a2.148,2.148,0,0,0,1.289-1.163,24.244,24.244,0,0,1,.866-2.644,9.956,9.956,0,0,1,2.445-2.148c2.1-1.784,2.644-4.792,2.544-7.528-.066-2.214-.423-4.448-.284-6.649l.04-.555c.04-.33.086-.661.145-.978.324-1.639,1.031-3.186,1.428-4.811a6.189,6.189,0,0,0-.489-4.858c-1.355-2.055-4.177-2.465-6.655-2.677-2.809-.238-5.32.073-7.118-2.26a25.371,25.371,0,0,0-2.829-3.417c-.37-.344-3.965-2.538-3.965-2.683a16.067,16.067,0,0,0-11.2-.859c-1.864.542-3.622,1.428-5.512,1.87-4.078.965-8.77-.079-12.233,2.254-1.93,1.322-3.086,3.423-4.17,5.472q-1.322,2.531-2.683,5.056a32.75,32.75,0,0,0-3.562,8.651,13.724,13.724,0,0,0-.238,2.022h0v1.077a3.558,3.558,0,0,0,.04.661c.04.2.033.271.053.41s.053.449.093.661.119.582.2.872c.033.126.079.245.119.363.066.225.145.443.231.661.046.112.093.231.145.344a6.186,6.186,0,0,0,.337.661c.053.093.093.178.145.264a8.773,8.773,0,0,0,.608.886c1.414,1.765,3.5,2.888,5.036,4.54v.74a22.623,22.623,0,0,0,10.3,18.472c0,.251.033.509.046.76a37.823,37.823,0,0,1-.073,5.889,2.776,2.776,0,0,0-2.194-.978,3.164,3.164,0,0,0-.846.073l-.059-.046h0v.059c-1.454.357-3.245,1.87-4.957,6.173,0,0-5.208,5.869-9.173,5.624s-14,6.107-14,6.107-9.795,6.358-11.9,12.835a90.458,90.458,0,0,1-4.217,10.759L297.854,346.93h0l-2.234,19.794s1.236,8.8.991,10.145,5.082,13.443,5.082,13.443,17.6,30.924,24.79,32.51l.516-.363a4.216,4.216,0,0,0,.972.363l1.48-1.044a16.131,16.131,0,0,1-.112,3.49c-.991,3.053.37,22.98,2.1,26.886s1.117,55.119,1.117,55.119l-.245,4.521a1.916,1.916,0,0,0,.059.4l-.059,1.071.178.092a12.729,12.729,0,0,1-.178,4.3,47.84,47.84,0,0,0-.872,7.587s-4.95,31.644-2.6,38,4.342,13.324,4.342,13.324,2.478,7.931.119,9.286-9.068,3.628-7.686,6.933c1.256,3.053,6.021,11.235,6.728,12.432l-.059.628-.972,10.528a13.218,13.218,0,0,0,1.117,4.018,6.924,6.924,0,0,0,7.065,4.415c.661-.046,1.428-.126,2.168-.225a93.677,93.677,0,0,0,16.06-4.177,6.548,6.548,0,0,1-1.256-1.038h0a3.628,3.628,0,0,1-1.1-2.644c.106-1.917-3.483-11.05-4.375-13.3-.139-.324-.211-.509-.211-.509s8.182-8.552,6.821-16.133c0,0-9.054-5.287-6.074-8.189s8.308-11.235,8.308-11.235.245-31.162,0-35.814a38.53,38.53,0,0,1,.456-9.669c.1-.482.218-.952.344-1.414a86.278,86.278,0,0,0,12.451.945c1.52,0,3.067,0,4.626-.093q0,.661.06,1.427c.344,7.719.985,21.255,1.507,26.284.74,7.21,4.831,26.641,4.831,26.641s-7.805,5.01,1.361,17.355c0,0,0,4.474-.608,5.122h0a56.032,56.032,0,0,0-1.566,6.45c-.383,2.326-.542,4.679.079,5.9,1.487,2.921,10.409,2.683,10.409,2.683h0l.218-.04a12.789,12.789,0,0,1,9.444,2.848c3.39,2.723,16.258,1.527,23.224.661,2.73-.344,4.554-.661,4.554-.661a2.644,2.644,0,0,0,.093-.952h0c-.073-1.712-1.414-5.466-10.508-8.816,0,0-8.552-5.75-8.433-10.76H411.2a9.318,9.318,0,0,1,1.183,0s-3.351-12.227-1.983-13.218-2.73-14.54-2.73-14.54-2.346-22.735-2.472-24.328a13.88,13.88,0,0,1,.615-4.031L405.2,526.88s-.119-4.144,0-5.492a27.436,27.436,0,0,0-.284-3.5c-.059-.463-.119-.945-.185-1.421,3.205-.813,5.287-1.566,5.287-1.566l-.37-43.388c2.723-5.287,3.225-16.886,3.212-25.114,0-5.287-.238-9.2-.238-9.2l3.721-6.074s.859-7.27-.5-8.863a1.526,1.526,0,0,1,.165-2.082,6.918,6.918,0,0,1,.813-.555s-.04-.06-.086-.145a6.562,6.562,0,0,1,.826-.588s-1.322-2.049-.139-2.915c1.11.753,2.1,1.322,2.855,1.784-.053.482-.106.76-.106.76l.317-.661,1.17.661s5.829-11.612,5.7-13.324,3.965-8.922,3.965-8.922.5-3.787,2.73-5.373,1.732-13.079,1.732-13.079.621-5.988,2.108-8.433S436.538,363.651,436.538,363.651ZM325,358.555l.112,2.769-1.137-1.831Z" transform="translate(-131.302 -112.728)" fill="url(#a)"/><path d="M478.906,504.812l-1.428,6.08s-11.434-5.836-13.5-13.251,3.45-10.231,3.45-10.231l10.654,4.514Z" transform="translate(-188.237 -204.03)" fill="#fff"/><path d="M478.906,504.812l-1.428,6.08s-11.434-5.836-13.5-13.251,3.45-10.231,3.45-10.231l10.654,4.514Z" transform="translate(-188.237 -204.03)" opacity="0.1"/><path d="M376.438,814.5s-10.574,3.886-17.844,4.375c-3.86.258-5.889-2.108-6.933-4.388a13.283,13.283,0,0,1-1.09-4l.945-10.475.5-5.578,15.445-4.012,2.188,6.688.2.509c.879,2.234,4.4,11.321,4.3,13.218a3.609,3.609,0,0,0,1.084,2.611,6.283,6.283,0,0,0,1.2,1.051Z" transform="translate(-149.936 -306.78)" fill="#fff"/><path d="M474.644,808.814a2.643,2.643,0,0,1-.093.945s-22.616,3.774-27.242,0a12.253,12.253,0,0,0-9.517-2.789s-8.75.238-10.211-2.644c-.608-1.209-.449-3.556-.073-5.869a55.917,55.917,0,0,1,1.533-6.417l.35-.278,2.082-1.672,24.374-.72h.185c-.119,4.983,8.275,10.7,8.275,10.7C473.223,803.375,474.539,807.109,474.644,808.814Z" transform="translate(-175.912 -306.424)" fill="#fff"/><path d="M474.646,813.476a2.7,2.7,0,0,1-.1.945s-22.609,3.774-27.236,0a12.253,12.253,0,0,0-9.51-2.789s-8.757.238-10.211-2.644c-.608-1.216-.456-3.556-.079-5.869,3.371.337,8.691,1.177,10.779,3.179,3.159,3.047,8.512,6.087,11.8,6.325C452.658,812.789,468.037,813.278,474.646,813.476Z" transform="translate(-175.914 -311.087)" opacity="0.1"/><path d="M377,826.328s-10.574,3.886-17.844,4.375c-3.86.258-5.889-2.108-6.926-4.4,2.69.905,6.424,1.857,8.387.985,2.326-1.031,10.574-1.7,15.2-1.983A6.508,6.508,0,0,0,377,826.328Z" transform="translate(-150.499 -318.611)" opacity="0.1"/><path d="M404.429,332.654c-8.724-3.39-19.946-14.593-17.144-19.827a11.711,11.711,0,0,0,1.09-4.2,38.372,38.372,0,0,0,.079-5.948,81.457,81.457,0,0,0-1.17-9.676s27.236.615,25.65,4.626a15,15,0,0,0-.41,5.505c.126,2.287.456,4.871.8,7.058.476,3,.952,5.287.952,5.287s-1.665,2.333-2.644,2.459S416.947,337.485,404.429,332.654Z" transform="translate(-162.237 -138.106)" fill="#cf6f80"/><path d="M370.31,797.617l-.2.225c-8.142-9.847-17.99,2.426-17.99,2.426l-.145-.258.5-5.578,15.445-4.012,2.188,6.688Z" transform="translate(-150.41 -306.78)" opacity="0.1"/><path d="M457,790.05s-5.948-.126-9.12,2.677-18.505.608-17.844,0a2.174,2.174,0,0,0,.344-1l2.082-1.672,24.374-.72C456.931,789.773,457,790.05,457,790.05Z" transform="translate(-176.876 -306.411)" opacity="0.1"/><path d="M376.99,666.713a18.391,18.391,0,0,0-1,3.391,38.8,38.8,0,0,0-.456,9.623c.245,4.626,0,35.629,0,35.629s-5.228,8.268-8.142,11.182,5.948,8.149,5.948,8.149c1.322,7.534-6.688,16.047-6.688,16.047-8.142-9.848-17.99,2.432-17.99,2.432s-5.353-9.253-6.688-12.557,5.228-5.591,7.534-6.933-.112-9.253-.112-9.253-1.95-6.933-4.263-13.258,2.551-37.81,2.551-37.81a48.8,48.8,0,0,1,.853-7.541,12.61,12.61,0,0,0,.178-4.283c-.04-.482-.086-.886-.119-1.157s-.059-.4-.059-.4l.093-.159,3.3-6.16S378.576,662.833,376.99,666.713Z" transform="translate(-146.959 -260.405)" fill="#e30a7e"/><path d="M453.339,746.634s-5.948-.126-9.12,2.644-18.505.608-17.844,0,.608-5.109.608-5.109c-8.995-12.28-1.322-17.263-1.322-17.263s-4.018-19.331-4.745-26.5c-.509-5.01-1.137-18.472-1.474-26.159-.145-3.3-.231-5.578-.231-5.578l7.349-1.48L427.5,667l17.725-3.556s.489,3.3.819,6.008a28.082,28.082,0,0,1,.278,3.483c-.119,1.322,0,5.459,0,5.459l.6,12.405a14.089,14.089,0,0,0-.6,4.012c.119,1.58,2.426,24.2,2.426,24.2s4.012,13.5,2.644,14.467S453.339,746.634,453.339,746.634Z" transform="translate(-173.211 -263.722)" fill="#e30a7e"/><path d="M413.16,297.626a15,15,0,0,0-.41,5.505,22.636,22.636,0,0,1-24.07-.449A81.452,81.452,0,0,0,387.51,293S414.746,293.6,413.16,297.626Z" transform="translate(-162.462 -138.106)" opacity="0.1"/><path d="M419.049,266.3a22.384,22.384,0,0,1-1.11,7.012,22.616,22.616,0,0,1-44.109-6.47V266.3a22.614,22.614,0,1,1,45.229,0Z" transform="translate(-157.823 -121.382)" fill="#cf6f80"/><path d="M404.429,340.67c-8.724-3.39-19.946-14.593-17.144-19.827a11.712,11.712,0,0,0,1.09-4.2l11.943,9.814,7.389,6.06,5.618-14.3c.476,3,.952,5.287.952,5.287s-1.665,2.333-2.644,2.459S416.947,345.5,404.429,340.67Z" transform="translate(-162.237 -146.123)" opacity="0.1"/><path d="M383.869,324.876,373.9,492.415l-13.007.853-33.68-97.146,5.525-115.334L333.9,256.42l14.976,12.3,7.4,6.06,5.783-14.718,10.753,9.372Z" transform="translate(-110.793 -86.954)" fill="#e30a7e"/><path d="M380.452,666.74a18.388,18.388,0,0,0-1,3.39,95.833,95.833,0,0,1-27.269-8.519l-.178-.092.059-1.064.033-.555,3.3-6.16S382.038,662.86,380.452,666.74Z" transform="translate(-150.421 -260.432)" opacity="0.1"/><path d="M426.691,675.386a66.92,66.92,0,0,1-7.31.833c-.145-3.3-.231-5.578-.231-5.578l7.349-1.48Z" transform="translate(-173.191 -265.661)" opacity="0.1"/><path d="M450.245,669.5c-4.7,1.223-11.956,2.6-18.452,1.738l-.093-4.19,17.725-3.556S449.914,666.761,450.245,669.5Z" transform="translate(-177.447 -263.739)" opacity="0.1"/><path d="M387.693,553.832c-27.1,4.626-51.914-8.638-51.914-8.638l.238-4.494s.615-50.949-1.091-54.855-3.034-23.713-2.069-26.753-3.523-48.629-3.523-48.629l-.727-18.505L302,381.177l11.9-24.8a89.475,89.475,0,0,0,4.137-10.707c2.069-6.437,11.672-12.762,11.672-12.762s9.847-6.318,13.74-6.08,8.995-5.591,8.995-5.591c3.767-9.6,7.177-5.254,7.177-5.254a8.578,8.578,0,0,1-.185,1.421c-1.322,10.541,21.374,43.851,21.7,44.439h0l2.161,52.648,2.188,66.626Z" transform="translate(-133.466 -145.568)" opacity="0.1"/><path d="M386.582,553.811c-27.1,4.626-51.921-8.638-51.921-8.638l.245-4.494s.615-50.949-1.1-54.855-3.034-23.713-2.062-26.753-3.523-48.629-3.523-48.629l-.734-18.505L300.87,381.117l11.9-24.8a90.881,90.881,0,0,0,4.137-10.707c2.062-6.437,11.672-12.762,11.672-12.762s9.847-6.318,13.734-6.08,8.995-5.591,8.995-5.591c3.774-9.6,7.931-5.254,7.931-5.254,0,.456-.4.661-.185,1.421,2.908,10.224,20.647,43.851,20.97,44.439h0l2.188,52.647,2.188,66.626Z" transform="translate(-133.083 -145.547)" fill="#fff"/><path d="M406.7,364.072c-2.915-1.216-18.353-18.842-18.353-18.842v-4.012c-.562-1.322-3.9-.516-6.609.41L382.9,317.26l1.322,1.1C387.12,328.575,406.365,363.484,406.7,364.072Z" transform="translate(-160.505 -146.333)" opacity="0.1"/><path d="M407.809,361.862c-2.921-1.216-18.36-18.842-18.36-18.842v-4.012c-.562-1.322-3.9-.516-6.609.41l1.17-24.367,1.322,1.1C388.233,326.365,407.485,361.28,407.809,361.862Z" transform="translate(-160.878 -145.584)" fill="#fff"/><path d="M352.347,517.893c.363,0,18.842-1.943,18.842-1.943s11.189,22,10.456,27.355-2.062,10.092-6.563,9.253-24.222.661-24.222.661Z" transform="translate(-150.034 -213.708)" opacity="0.1"/><path d="M351.237,515.683c.363,0,18.842-1.943,18.842-1.943s11.182,22.008,10.455,27.355-2.069,10.092-6.563,9.253-24.222.661-24.222.661Z" transform="translate(-149.658 -212.959)" fill="#fff"/><path d="M367.885,501.05s16.959,9.114,17.322,11.9-8.631-1.216-10.574-1.7a24.186,24.186,0,0,0-3.893-.608l-12.96.35Z" transform="translate(-152.381 -208.656)" fill="#cf6f80"/><circle cx="1.784" cy="1.784" r="1.784" transform="translate(239.68 215.307)" opacity="0.1"/><circle cx="1.784" cy="1.784" r="1.784" transform="translate(239.68 214.58)" fill="#3f3d56"/><circle cx="1.784" cy="1.784" r="1.784" transform="translate(242.965 292.553)" opacity="0.1"/><circle cx="1.784" cy="1.784" r="1.784" transform="translate(242.965 291.819)" fill="#3f3d56"/><circle cx="1.784" cy="1.784" r="1.784" transform="translate(241.458 253.93)" opacity="0.1"/><circle cx="1.784" cy="1.784" r="1.784" transform="translate(241.458 253.203)" fill="#3f3d56"/><path d="M460.2,448.489s1.216,1.824,0,2.677.119,2.915.119,2.915-3.034,1.778-1.7,3.377.489,8.823.489,8.823l-3.648,6.041s.218,3.893.231,9.154c0,8.208-.482,19.748-3.152,25.009l.37,43.164s-12.775,4.666-23.469,3.245l-1.586-69.263s2.313-39.277,3.166-46.812a78.438,78.438,0,0,0,.608-11.8s-.363-11.791-1.586-17.263c0,0-1.322-23.707-1.454-30.269-.059-3.139.106-12.3.291-21.01.2-9.524.436-18.505.436-18.505L426.9,318.886s2.412-.245,3.139.727a6.957,6.957,0,0,0,1.057.813h0c4.164,2.815,18.875,11.473,18.875,11.473s8.142,3.238,10.092,7.878,3.3,7.931,4.25,9.253,1.461,7.534,1.461,7.534,2.8,11.434,4.99,13.37,3.787,14.256,3.787,14.256l-19.331,15.2s-1.7,25.286-2.062,26.264S460.2,448.489,460.2,448.489Z" transform="translate(-175.819 -146.875)" fill="#fff"/><path d="M460.906,448.381s1.209,1.824,0,2.677.112,2.915.112,2.915-3.014,1.8-1.692,3.4.489,8.823.489,8.823l-3.648,6.041s.218,3.893.238,9.154c0,8.208-.482,19.748-3.153,25.009l.363,43.164s-12.8,4.666-23.475,3.245l-1.58-69.263s2.313-39.277,3.166-46.812a77.711,77.711,0,0,0,.6-11.8s-.363-11.791-1.58-17.263c0,0-1.322-23.707-1.461-30.269-.059-3.139.112-12.3.291-21.01.2-9.524.436-18.505.436-18.505L426.83,318.54s3.186,0,3.919.985a6.271,6.271,0,0,0,1.057.813h0c4.164,2.815,18.882,11.473,18.882,11.473s8.136,3.238,10.085,7.878,3.3,7.931,4.256,9.253,1.454,7.534,1.454,7.534,2.8,11.434,4.99,13.37,3.767,14.229,3.767,14.229l-19.331,15.2s-1.7,25.286-2.069,26.264S460.906,448.381,460.906,448.381Z" transform="translate(-175.795 -146.767)" fill="#fff"/><path d="M438.131,344.238l1.745,5.089-9.187,9.253c.2-9.517.436-18.505.436-18.505L427.94,320.73s3.186,0,3.919.985a6.03,6.03,0,0,0,1.057.806h0l7.812,22.537Z" transform="translate(-176.172 -147.51)" opacity="0.1"/><path d="M437.021,342.028l1.751,5.089-9.187,9.253c.2-9.524.436-18.505.436-18.505L426.83,318.52s3.192,0,3.919.985a6.61,6.61,0,0,0,1.057.813h0l7.818,22.53Z" transform="translate(-175.795 -146.76)" fill="#fff"/><path d="M419.049,266.3a22.384,22.384,0,0,1-1.11,7.012.945.945,0,0,1-.714-.178c-.172-5.948-3.1-11.533-6.7-16.285a17.111,17.111,0,0,0-3.635-3.767,7.112,7.112,0,0,0-4.93-1.395c-1.983.271-3.734,1.619-5.737,1.791-2.644.218-5.01-1.613-7.633-1.705a7.5,7.5,0,0,0-5.611,2.6,15.392,15.392,0,0,0-3.007,5.578,32.636,32.636,0,0,0-1.679,9.623c-.033,1.85-.212,4.17-1.93,4.844a9.874,9.874,0,0,0-2.492-7.541l-.04-.04V266.3a22.614,22.614,0,1,1,45.229,0Z" transform="translate(-157.823 -121.382)" opacity="0.1"/><path d="M402.26,222.81a15.571,15.571,0,0,0-10.984-.859c-1.831.542-3.556,1.421-5.413,1.864-3.965.958-8.592-.079-12,2.24-1.89,1.322-3.027,3.41-4.084,5.439l-2.644,5.036a32.679,32.679,0,0,0-3.5,8.592,10.97,10.97,0,0,0,1.685,8.869c1.4,1.778,3.47,2.895,4.99,4.567a9.913,9.913,0,0,1,2.485,7.534c1.725-.661,1.89-2.987,1.93-4.838a32.636,32.636,0,0,1,1.679-9.623,15.341,15.341,0,0,1,3.007-5.578,7.515,7.515,0,0,1,5.611-2.6c2.644.093,5.016,1.917,7.633,1.7,1.983-.165,3.741-1.52,5.737-1.784a7.085,7.085,0,0,1,4.93,1.395,16.931,16.931,0,0,1,3.628,3.767c3.609,4.752,6.536,10.323,6.708,16.285.747.549,1.824-.165,2.194-1.011a24.159,24.159,0,0,1,.853-2.644,9.75,9.75,0,0,1,2.392-2.128c2.062-1.778,2.578-4.772,2.5-7.488s-.608-5.472-.093-8.142c.311-1.639,1.011-3.172,1.395-4.792a6.265,6.265,0,0,0-.476-4.831c-1.322-2.049-4.1-2.452-6.53-2.644-2.756-.238-5.221.066-6.979-2.254a25.313,25.313,0,0,0-2.776-3.4C405.8,225.136,402.26,222.956,402.26,222.81Z" transform="translate(-154.279 -113.803)" fill="#512e4e"/><path d="M308.854,427.9l-6.906-12.769-2.188,19.7s1.216,8.75.972,10.092,4.983,13.37,4.983,13.37,17.269,30.758,24.321,32.345l23.826-17.025-6.318-8.023s-2.188-.853-2.736,0c0,0-11.731-20.184-12.947-21.645s-.978-4.375-.978-4.375-1.824-1.943-1.216-3.767-3.523-8.149-3.523-8.149l3.767-3.523Z" transform="translate(-132.706 -179.52)" opacity="0.1"/><path d="M301.562,412.93l-1.824,1.454-2.188,19.7s1.216,8.75.972,10.092,4.99,13.37,4.99,13.37,17.263,30.758,24.315,32.345l23.832-17.025-6.325-8.023s-2.188-.853-2.736,0c0,0-11.731-20.184-12.947-21.645s-.972-4.375-.972-4.375-1.824-1.943-1.216-3.767-3.529-8.149-3.529-8.149l3.767-3.523Z" transform="translate(-131.957 -178.774)" fill="#fff"/><path d="M467.816,523.671c1.322,1.606.489,8.816.489,8.816l-3.648,6.041s.218,3.9.231,9.153l-6.133,1.917a3.642,3.642,0,0,1-4.725-3.589l1.057-34.109,14.309,5.472c-1.216.846.119,2.921.119,2.921S466.481,522.065,467.816,523.671Z" transform="translate(-185.018 -212.335)" opacity="0.1"/><path d="M468.922,522.564c1.322,1.606.489,8.823.489,8.823l-3.648,6.041s.218,3.893.238,9.154l-6.246,1.95a3.569,3.569,0,0,1-4.626-3.516l1.064-34.215,14.315,5.472c-1.223.846.112,2.915.112,2.915S467.6,520.965,468.922,522.564Z" transform="translate(-185.391 -211.962)" fill="#fff"/><path d="M477.3,501.269s-.971,6.206-3.4,6.569-3.523,10.039-5.948,9.7-.819-8.995-.734-10.674-2.644-8.631-.6-10.211,8.506,0,8.506,0Z" transform="translate(-189.027 -206.925)" fill="#cf6f80"/><path d="M481.191,426.943l4.587-9.253s1.824,7.052,1.824,10.819,2.551,4.137,2.551,4.137,2.8,3.3,1.322,5.71-2.069,8.393-2.069,8.393.482,11.427-1.705,13.007-2.644,5.353-2.644,5.353-4.018,7.171-3.893,8.876-5.591,13.251-5.591,13.251,2.8-14.348-13.5-20.547c0,0-.126-4.871,1.09-6.206s3.113-1.943,1.923-8.691-.344-14.811-.344-16.43,3.648-11.718,3.648-11.718Z" transform="translate(-187.747 -180.388)" opacity="0.1"/><path d="M483.883,415.69l4.005,1.322s1.831,7.052,1.831,10.819,2.551,4.137,2.551,4.137,2.8,3.3,1.322,5.71-2.062,8.393-2.062,8.393.482,11.427-1.705,13.007-2.677,5.353-2.677,5.353-4.012,7.171-3.886,8.876-5.6,13.251-5.6,13.251,2.8-14.348-13.5-20.547c0,0-.119-4.871,1.1-6.206s3.113-1.943,1.923-8.691-.344-14.811-.344-16.43,3.648-11.718,3.648-11.718Z" transform="translate(-188.455 -179.71)" fill="#fff"/><path d="M360.15,777.452s6.384-4.012,10.574-1.1S360.15,777.452,360.15,777.452Z" transform="translate(-153.184 -301.651)" opacity="0.1"/><path d="M435.21,759.772a12.924,12.924,0,0,1,10.4,4.382C450.351,769.262,435.21,759.772,435.21,759.772Z" transform="translate(-178.637 -296.375)" opacity="0.1"/><g transform="translate(209.104 122.047)" opacity="0.1"><path d="M423.97,268.131a9.8,9.8,0,0,0-2.4,2.135,24.186,24.186,0,0,0-.846,2.644c-.37.859-1.447,1.56-2.194,1.018-.172-5.948-3.106-11.533-6.708-16.291a16.932,16.932,0,0,0-3.628-3.767,7.1,7.1,0,0,0-4.937-1.395c-1.983.271-3.728,1.619-5.73,1.784-2.644.225-5.016-1.606-7.64-1.7a7.482,7.482,0,0,0-5.6,2.611,15.307,15.307,0,0,0-3.007,5.571,32.675,32.675,0,0,0-1.679,9.623c-.04,1.844-.211,4.144-1.917,4.831a9.052,9.052,0,0,1,0,1.467c1.718-.661,1.89-2.987,1.93-4.838a32.637,32.637,0,0,1,1.679-9.623,15.34,15.34,0,0,1,3.007-5.578,7.5,7.5,0,0,1,5.6-2.6c2.644.093,5.023,1.917,7.64,1.7,1.983-.165,3.741-1.52,5.73-1.784a7.1,7.1,0,0,1,4.937,1.395,16.932,16.932,0,0,1,3.628,3.767c3.6,4.752,6.536,10.323,6.708,16.285.747.549,1.824-.165,2.194-1.011a25.646,25.646,0,0,1,.846-2.644,9.779,9.779,0,0,1,2.4-2.128c2.062-1.778,2.578-4.772,2.5-7.488v-.251C426.355,264.212,425.728,266.611,423.97,268.131Z" transform="translate(-368.232 -246.4)"/><path d="M370.334,270.353c-1.52-1.672-3.6-2.789-4.99-4.56a9.676,9.676,0,0,1-1.923-5.413,10.178,10.178,0,0,0,1.923,6.867c1.394,1.778,3.47,2.895,4.99,4.567a9.914,9.914,0,0,1,2.492,5.9,9.914,9.914,0,0,0-2.492-7.356Z" transform="translate(-363.385 -249.092)"/><path d="M452.637,244.609c-.39,1.619-1.084,3.159-1.4,4.792a15.264,15.264,0,0,0-.2,3.3,12.844,12.844,0,0,1,.2-1.877c.317-1.639,1.011-3.172,1.4-4.792a8.131,8.131,0,0,0,.218-2.736A9.19,9.19,0,0,1,452.637,244.609Z" transform="translate(-393.1 -243.3)"/></g><ellipse cx="64.398" cy="10.343" rx="64.398" ry="10.343" transform="translate(23.486 481.987)" fill="#e30a7e" opacity="0.1"/><rect width="4.144" height="93.3" transform="translate(85.816 294.192)" fill="#535461"/><path d="M193.665,641.261l-.258,4.2-.37,5.948-.152,2.472-.364,5.948-.159,2.472-.37,5.948-4.177,67.458a11.434,11.434,0,0,1-11.407,10.72H154.691a11.427,11.427,0,0,1-11.4-10.72l-4.157-67.5-.37-5.948-.152-2.472-.37-5.948-.152-2.472-.37-5.948-.264-4.2a5.948,5.948,0,0,1,5.948-6.285h44.419a5.908,5.908,0,0,1,5.842,6.331Z" transform="translate(-77.666 -254.054)" fill="#3f3d56"/><path d="M146.294,592.24l-.37,5.928H90.95l-.37-5.928Z" transform="translate(-30.553 -200.829)" fill="#9d9cb5"/><path d="M146.04,604.95l-.363,5.935H91.74l-.37-5.935Z" transform="translate(-30.821 -205.139)" fill="#9d9cb5"/><path d="M145.786,617.68l-.363,5.928H92.53l-.37-5.928Z" transform="translate(-31.088 -209.456)" fill="#9d9cb5"/><path d="M100.953,547.212c24.13,17.461,34.2,44.77,34.2,44.77s-29.08-1-53.216-18.459S47.75,528.76,47.75,528.76,76.816,529.751,100.953,547.212Z" transform="translate(-47.25 -218.052)" fill="#e30a7e"/><path d="M47.72,528.76s30.19,16.754,39.872,30.626,47.552,32.6,47.552,32.6" transform="translate(-47.24 -218.052)" fill="none" stroke="#535461" stroke-miterlimit="10" stroke-width="2"/><path d="M136.961,498.306c13.132,9.5,18.624,24.361,18.624,24.361s-15.829-.542-28.967-10.039S108,488.26,108,488.26,123.822,488.8,136.961,498.306Z" transform="translate(-67.681 -204.319)" fill="#e30a7e"/><path d="M108,488.26s16.43,9.12,21.7,16.668,25.888,17.739,25.888,17.739" transform="translate(-67.681 -204.319)" fill="none" stroke="#535461" stroke-miterlimit="10" stroke-width="2"/><path d="M199.471,527.99c-15.088,16.582-18.281,38.253-18.281,38.253s21.274-5.221,36.35-21.81S235.82,506.18,235.82,506.18,214.559,511.408,199.471,527.99Z" transform="translate(-92.499 -210.395)" fill="#e30a7e"/><path d="M235.833,506.19s-19.655,17-24.652,28.71-29.992,31.347-29.992,31.347" transform="translate(-92.499 -210.399)" fill="none" stroke="#535461" stroke-miterlimit="10" stroke-width="2"/><path d="M970.8,439.927s-10.912-54.287-6.735-61.041c0,0,.152-6.279-.1-14.282v-.919a20.333,20.333,0,0,0,2.293,1.322,18.558,18.558,0,0,0,12.491,1.613l-3.3-3.681a6.1,6.1,0,0,1-1.791-2.994,6.272,6.272,0,0,1,.714-3.238c3.139-7.931,3.3-17.9-2.743-23.958-5.109-5.089-6.351-11.658-11.9-16.3-4.051-3.4-6.279-8.393-8.38-13.218a74.342,74.342,0,0,1-4.587-12.511c-.793-3.377-1.11-6.873-2.2-10.171s-3.133-6.5-6.325-7.977a23.867,23.867,0,0,1-3.437-1.513c-1.362-.919-2.181-2.412-3.166-3.721-5-6.609-21.757-2.716-29.688-.033a16.7,16.7,0,0,0-5.869,3.252l.073-.119c.059-.1.132-.2.2-.3a10.429,10.429,0,0,0-2.221,2.478c-1.157,1.831-1.639,3.965-2.6,5.948-1.163,2.346-7.633,8.9-4.851,11.533a2.344,2.344,0,0,0,.661.423,5.717,5.717,0,0,0,3.3.33l-.119.284a19.319,19.319,0,0,0-1.434,7.329A19.837,19.837,0,0,0,909.1,318.123a20.2,20.2,0,0,0,6.127-.945c.046.251.086.5.132.753a2.31,2.31,0,0,0,.046.3h0l-.35.489a.663.663,0,0,0-.06-.086l-10.376,14.5c-1.586,1.117-10.72,7.726-11.235,12.683-.542,5.426-1.084,11.777-1.084,11.777l-.073,1.361a4.085,4.085,0,0,1-3.3.892c-3.238-.529-3.238,11.9-3.238,11.9s-2.155,1.983-3.635.264-5.393,4.1-5.393,4.1l-24.519,1.057h0l-.562.033-1.322-4.091a1.725,1.725,0,0,0-2.161-1.1,1.981,1.981,0,0,0-.3.126l-.093.053-.172.119-.086.079a1.33,1.33,0,0,0-.132.139l-.079.093-.04.04h0a1.666,1.666,0,0,0-.238,1.48l1.137,3.509c-4.732.952-9.57,3.635-5.624,11.024l-20-3.694,6.47,5.433,33.4,6.893c-.443.793-.152,1.943,1.229,3.562,5.948,6.986,16.787,8.883,21.149,9.372a37.547,37.547,0,0,0,4.289,7.27l-.377,6.959s-11.044,53.044-13.066,55.734a31.445,31.445,0,0,0,2.8-3.681c-3.205,10.9-7.686,25.815-8.863,28.049-1.89,3.569-3.642,18.01-1.487,18.935.661.284,2.551.145,5.248-.059v1.2l-.119,45.331s.542,27.8-.945,30.454-1.884,8.208-1.884,8.208-5.948,10.964-10.66,15.373a.713.713,0,0,1-.106.093l-.145-1.031s-5.664,7.151-18.195,6.748c0,0-7.541,4.9,3.642,5.168s25.465-.4,25.465-.4,9.973-15.2,18.327-13.218v11.52H891.2v-11.7a10.489,10.489,0,0,0,4.554-6.893,8.38,8.38,0,0,0-2.987-7.752,4.957,4.957,0,0,1-1.632-3.622l-.093.079a6.988,6.988,0,0,0-.086-.714c-.734-5.948-1.652-18.221,1.593-27.3,4.448-12.451,5.8-29.794,2.558-40.117a92.232,92.232,0,0,1-2.571-10.052c-.079-.43-.152-.839-.218-1.223a52.1,52.1,0,0,1,6.563,1.322c7.5,2.069,23.911,2.452,37.923,2.34.033.383.073.786.119,1.19a43.293,43.293,0,0,0,1.56,8.274c1.758,5.287,2.564,28.6,2.564,28.6s2.267,19.166,1.031,26.965c-.661,4.336-1.322,8.691-1.7,13.066v.086s-3.714,10.574-6.431,16.318c-.066.145-.139.291-.2.43a8.586,8.586,0,0,0-2.122.469s-3.642,7.27-7.27,8.473-2.425,5.162,5.79,3.708,20.62-2.644,20.62-2.644l.535-7.415,2.525-3.159-.661,7.4,2.69-.529-.357-8.995,4.131-5.168s4.99-4.441-2.426-13.178v.192c-.079-.126-.152-.258-.238-.383v-.04c-1.229-1.9-2.207-5.452-.416-11.751,3.238-11.381,5.122-21.711,5.122-21.711s7.23-27.672-1.461-40.765h.383a22.021,22.021,0,0,1-1.87-5.816q-.066-.357-.119-.734c6.431-.37,12.742-1.533,17.891-4.045C976.467,516.05,973.367,450.382,970.8,439.927Zm-81.641-45.8v.132l-1.322.066Zm-4.534.628a1.461,1.461,0,0,0-.595.284A5.868,5.868,0,0,0,883,397.755l-2.062-.463s-1.447-.311-3.529-.661l-.985-.991C879.129,395.415,881.945,395.085,884.628,394.754Z" transform="translate(-309.956 -128.168)" fill="url(#b)"/><path d="M972.107,742.852l-.786,9.365,2.637-.529-.4-10.158Z" transform="translate(-329.209 -251.453)" fill="#1d2366"/><path d="M910.271,706.114c-3.179,9.054-2.28,21.274-1.566,27.209.264,2.194.509,3.529.509,3.529s-4.752,10.826-5.148,11.235-13.985,8.7-13.985,8.7l-9.5,5.545s-9.636-4.223-5.016-5.677a7.013,7.013,0,0,0,2.492-1.7c4.626-4.4,10.436-15.32,10.436-15.32s.4-5.545,1.851-8.182.925-30.349.925-30.349l.112-45.173V650.05l18.076.132a40.9,40.9,0,0,0,.78,5.948,90.928,90.928,0,0,0,2.518,10.019C915.941,676.453,914.62,693.709,910.271,706.114Z" transform="translate(-327.536 -259.181)" fill="#ffb0b1"/><path d="M909.213,779.586s-4.752,10.826-5.148,11.235-13.985,8.7-13.985,8.7l-9.5,5.545s-9.636-4.223-5.016-5.677a7.013,7.013,0,0,0,2.492-1.7l.41,2.888,3.166-.132,27.1-24.381C908.969,778.251,909.213,779.586,909.213,779.586Z" transform="translate(-327.536 -301.914)" opacity="0.1"/><path d="M900.269,777,873.02,801.546l-3.166.132-.661-4.626s-5.538,7.125-17.844,6.728c0,0-7.389,4.884,3.562,5.148s24.936-.4,24.936-.4,9.768-15.2,17.944-13.218v11.48H900.3V795.208a10.435,10.435,0,0,0,4.454-6.873,8.42,8.42,0,0,0-2.915-7.719A4.976,4.976,0,0,1,900.269,777Z" transform="translate(-318.922 -302.23)" fill="#1d2366"/><path d="M1010.958,719.979c-1.758,6.279-.8,9.814.4,11.711v.04a21.647,21.647,0,0,1,3.159,7.713l.106.595-12.4,18.076-6.728,2.644s-10.819-3.694-8.843-4.752c.5-.258,1.269-1.632,2.155-3.529,2.644-5.717,6.292-16.265,6.292-16.265v-.086c.383-4.355.991-8.7,1.666-13.02,1.209-7.779-1.011-26.872-1.011-26.872s-.793-23.217-2.511-28.5a43.581,43.581,0,0,1-1.54-8.222c-.357-3.3-.436-6.027-.436-6.027s7.125-9.914,20.184.793a14.369,14.369,0,0,1,2.73,2.961c9.021,12.835,1.758,41.108,1.758,41.108S1014.123,708.631,1010.958,719.979Z" transform="translate(-365.549 -258.928)" fill="#ffb0b1"/><path d="M1014.656,782.226l-12.4,18.076-6.728,2.644s-10.819-3.694-8.843-4.752c.5-.258,1.269-1.632,2.155-3.529,4.58-.04,6.953,4.322,6.953,4.322l5.8-.925s7.653-15.042,9.372-15.961.264-6.867.264-6.867V773.72c.046.053.086.112.139.165v.04a21.64,21.64,0,0,1,3.159,7.713Z" transform="translate(-365.559 -301.117)" opacity="0.1"/><path d="M991.614,799.573s-3.3-6.067-9.636-3.827c0,0-3.562,7.27-7.125,8.446s-2.373,5.142,5.677,3.694,20.184-2.644,20.184-2.644l.529-7.4,8.182-10.422s4.878-4.421-2.379-13.125v1.513s1.454,5.948-.264,6.867-9.345,15.967-9.345,15.967Z" transform="translate(-360.983 -301.314)" fill="#1d2366"/><path d="M918.236,650.162a40.918,40.918,0,0,0,.78,5.948,82.912,82.912,0,0,0-18.875-.192V650.03Z" transform="translate(-336.293 -259.174)" opacity="0.1"/><path d="M1017.421,658.881s-10.574.516-23.184.621c-.357-3.3-.436-6.028-.436-6.028s7.125-9.914,20.184.793a14.367,14.367,0,0,1,2.729,2.961,16.13,16.13,0,0,0,.707,1.652Z" transform="translate(-368.053 -258.925)" opacity="0.1"/><path d="M982.531,598.294s-46.316,2.24-60.433-1.718-28.108-.529-30.216-1.447-.4-15.307,1.454-18.869,12-39.588,12-39.588l9.768-50.929,10.29-2.835.727-.2,17.93-4.944,13.139-3.628s26.125,102,23.885,109.518a19.26,19.26,0,0,0-.383,8.849A22.092,22.092,0,0,0,982.531,598.294Z" transform="translate(-333.164 -199.527)" fill="#1d2366"/><path d="M873.5,439s-9.253,9.914-2.247,15.439,11.612.529,11.612.529Z" transform="translate(-325.61 -187.615)" fill="#c7daf5"/><path d="M873.5,439s-9.253,9.914-2.247,15.439,11.612.529,11.612.529Z" transform="translate(-325.61 -187.615)" opacity="0.1"/><path d="M978.954,331.108s-1.084,1.031-2.716,2.551c-2.326,2.174-5.77,5.353-8.823,8.017-4.23,3.681-7.719,6.384-6.47,4.078s1.011-6.325.39-10.085c-.046-.251-.086-.5-.132-.747a69.256,69.256,0,0,0-2.042-8.169s6.834-8.83,10.614-12.313c1.408-1.322,2.392-1.864,2.452-.945a30.7,30.7,0,0,0,2.141,6.86c.033.093.066.178.106.271.767,1.983,1.632,4.018,2.392,5.776C978.029,329.1,978.954,331.108,978.954,331.108Z" transform="translate(-356.307 -144.901)" fill="#ffb0b1"/><path d="M974.473,320.63a19.616,19.616,0,0,1-13.139,15.042,68.788,68.788,0,0,0-2.174-8.916s12.868-16.622,13.066-13.258C972.272,314.775,973.277,317.6,974.473,320.63Z" transform="translate(-356.307 -144.905)" opacity="0.1"/><path d="M947.814,352.8l1.666-2.346s1.1,6.728,5.162,3.761,4.256,22.332,4.256,22.332l-4.355,65.119-31.472-1.884.892-31.466,3.562-15.862,8.81-23.059,5.241-7.62Z" transform="translate(-344.069 -157.588)" opacity="0.1"/><path d="M958.908,377.135l-3.965,58.88-.416,6.239L936.979,441.2l-.661-.04-13.218-.793.892-31.472,3.562-15.862,8.81-23.059,5.241-7.62,6.239-9.008,1.665-2.34s1.1,6.728,5.162,3.761l.086-.06h0C958.723,352.2,958.908,377.135,958.908,377.135Z" transform="translate(-344.079 -157.777)" fill="#1d2366"/><path d="M909.584,406.26s-1.58,3.3-4.752,2.769-3.166,11.9-3.166,11.9-2.108,1.983-3.562.264-5.287,4.091-5.287,4.091L868.8,426.338s10.687,4.884,8.592,19.662c0,0,36.284-2.247,37.473-5.677S909.584,406.26,909.584,406.26Z" transform="translate(-325.666 -176.513)" fill="#fff"/><path d="M909.584,406.26s-1.58,3.3-4.752,2.769-3.166,11.9-3.166,11.9-2.108,1.983-3.562.264-5.287,4.091-5.287,4.091L868.8,426.338s10.687,4.884,8.592,19.662c0,0,36.284-2.247,37.473-5.677S909.584,406.26,909.584,406.26Z" transform="translate(-325.666 -176.513)" opacity="0.03"/><path d="M777.66,389.76l6.331,5.406,52.119,10.951-6.464-6.6Z" transform="translate(-263.54 -132.169)" fill="#fff"/><path d="M941.3,353.979c-.866,1.322-3.344,8.089-5.413,14-1.725,4.924-3.166,9.253-3.166,9.253s-3.364,21.9-5.082,25.861-.786,19.4-.786,19.4l-6.4,38.127s-2.9,19.662-7.382,31.406c-4.421,11.559-9.345,16.979-9.5,17.15,1.983-2.683,12.788-55.516,12.788-55.516l3.569-66.632s.522-6.331,1.051-11.744,11.235-12.8,11.235-12.8L942.537,347.8C943.574,349.188,942.88,351.607,941.3,353.979Z" transform="translate(-337.457 -156.689)" fill="#fff"/><path d="M907.642,479.221s-15.2-.661-22.563-9.5,17.018-3.529,17.018-3.529l6.338,1.454Z" transform="translate(-330.717 -196.297)" fill="#ffb0b1"/><path d="M998.771,543.744a19.26,19.26,0,0,0-.383,8.849c-16.582,1.176-34.321-3.3-34.321-3.3-3.3,3.04-12.009,7.521-12.009,7.521l-4.745-58.82c-3.034-7.931-4.223-49.482-4.223-49.482s.271-2.174.661-5.433a.626.626,0,0,1,.033-.245c1.183-9.1,3.529-26.185,4.679-28.492,1.586-3.172-4.877-11.612-4.877-11.612l2.941-25.081.357-3.027c6.2-2.769,10.951-11.612,10.951-11.612l3.648-6.391h0c3.965-2.544,4.17,22.391,4.17,22.391l-3.965,58.88,13.139-3.628S1001.012,536.223,998.771,543.744Z" transform="translate(-350.858 -159.617)" opacity="0.1"/><path d="M1016.2,539.727c-18.076,8.975-50.929.661-50.929.661-3.3,3.04-12.009,7.521-12.009,7.521l-4.752-58.82c-3.027-7.931-4.217-49.482-4.217-49.482s3.82-31,5.406-34.169c.463-.925.238-2.3-.311-3.78a47.837,47.837,0,0,1-2.895-22.134l1.269-10.779.35-3.02c6.206-2.776,10.958-11.619,10.958-11.619l3.3-5.79,6.08-10.667,2.882-5.049.489.443,3.734,3.384,3.965,3.3c5.175,4.362,14.117,12.042,18.73,16.741,4.058,4.137,5.34,20.23,5.71,32.345.245,7.977.1,14.229.1,14.229-4.091,6.735,6.609,60.8,6.609,60.8C1013.163,474.3,1016.2,539.727,1016.2,539.727Z" transform="translate(-351.265 -151.535)" fill="#fff"/><path d="M972.052,364.462s-12.405,23.614-10.964,32.589,5.538,19.133,3.562,21.506a7.3,7.3,0,0,1-5.809,2.9c-1.983.132-7.27,3.827-7.27,4.223s-4.884.4-9.253,2.247a57.609,57.609,0,0,1-10.819,2.9s-12.557-.4-13.727.793-2.373,8.308.132,13.985,5.287,9.914,7.389,10.687,15.439-3.694,26.258-4.752,22.563-9.629,22.563-9.629,12.934-4.626,15.2-12.405-2.769-50.533-2.769-50.533S982.739,359.049,972.052,364.462Z" transform="translate(-341.818 -162.023)" opacity="0.03"/><path d="M969.662,361.463s-12.405,23.621-10.951,32.589,5.538,19.133,3.556,21.512a7.269,7.269,0,0,1-5.8,2.9c-1.983.132-7.27,3.827-7.27,4.223s-4.884.4-9.253,2.24a58.178,58.178,0,0,1-10.819,2.9s-12.557-.4-13.72.793-2.379,8.314.132,13.985,5.287,9.914,7.389,10.687,15.439-3.694,26.258-4.745,22.563-9.636,22.563-9.636,12.927-4.626,15.168-12.4-2.769-50.539-2.769-50.539S980.349,356.056,969.662,361.463Z" transform="translate(-341.014 -161.006)" opacity="0.03"/><path d="M971.469,362.666s-12.405,23.621-10.951,32.589,5.538,19.133,3.562,21.506a7.27,7.27,0,0,1-5.809,2.908c-1.983.132-7.27,3.827-7.27,4.217s-4.878.4-9.253,2.247a57.741,57.741,0,0,1-10.819,2.9s-12.557-.4-13.727.793-2.373,8.314.132,13.985,5.287,9.914,7.389,10.687,15.439-3.694,26.258-4.752,22.563-9.629,22.563-9.629,12.934-4.626,15.2-12.405-2.736-50.533-2.736-50.533S982.149,357.287,971.469,362.666Z" transform="translate(-341.625 -161.417)" fill="#fff"/><path d="M995.9,458.7s-9.914-1.983-6.464,1.322,3.43,6.2,7.653,6.067S995.9,458.7,995.9,458.7Z" transform="translate(-366.326 -194.094)" opacity="0.1"/><path d="M1024.339,566.58s-4.481,3.034,4.091,10.026S1024.339,566.58,1024.339,566.58Z" transform="translate(-378.012 -230.877)" opacity="0.1"/><path d="M1011.9,604.31c0,.4-1.586,14.54,4.349,18.076S1011.9,604.31,1011.9,604.31Z" transform="translate(-374.126 -243.671)" opacity="0.1"/><path d="M863.641,436.59c-4.785.165-15.121,1.626-9.762,11.625,4.739,8.85,12.7,2.934,17.183-1.553A16.886,16.886,0,0,0,863.641,436.59Z" transform="translate(-320.097 -186.797)" fill="#ffb0b1"/><path d="M881.39,451Z" transform="translate(-329.935 -191.684)" fill="#ffb0b1"/><path d="M880.74,451.6l.2-.2Z" transform="translate(-329.715 -191.819)" fill="#ffb0b1"/><path d="M981.3,340.334c-5.076,3.47-9.332,6.4-10.165,7.006-2.273,1.685-6.609,11.579-9.4,16.628-2.227,4.065-9.464,5.109-12.194,5.367l.35-3.02c6.206-2.776,10.958-11.619,10.958-11.619l12.266-21.506,4.223,3.84Z" transform="translate(-353.045 -151.735)" opacity="0.1"/><path d="M981.3,339.734c-5.076,3.47-9.332,6.4-10.165,7.012-2.273,1.679-6.609,11.572-9.4,16.622-2.227,4.065-9.464,5.109-12.194,5.366l.35-3.02c6.206-2.776,10.958-11.619,10.958-11.619l12.266-21.506,4.223,3.827S978.924,337.725,981.3,339.734Z" transform="translate(-353.045 -151.531)" fill="#dce7ff"/><path d="M962.7,307.863a19.6,19.6,0,1,1-16.664-19.377A19.571,19.571,0,0,1,962.7,307.863Z" transform="translate(-344.213 -136.5)" fill="#ffb0b1"/><path d="M997.642,373.788a17.422,17.422,0,0,1-6.325-6.794c-1.1-2.181-1.837-4.7-3.721-6.246-1.7-1.388-3.965-1.725-6.08-2.346-6.953-2.055-12.782-8.4-13-15.644-.106-3.41.958-6.814.476-10.191a11.288,11.288,0,0,0-2.207-5.254,18.1,18.1,0,0,0-1.91-2.055c-.925-.872-1.9-1.718-2.743-2.644a10.264,10.264,0,0,1-1.388-1.884,9.061,9.061,0,0,1-.76-1.751c-1.322-4.045-.119-8.843-1.573-12.934l-.079-.225c-.549-1.454-1.665-2.908-3.219-3.02s-2.882,1.176-4.362,1.751c-3.1,1.2-6.444-.846-9.028-2.934s-5.5-4.474-8.783-4.012c-2.174.311-3.893,1.791-5.9,2.558a8.267,8.267,0,0,1-1.395.4,19.6,19.6,0,0,1,37.784,7.3,19.4,19.4,0,0,1-.43,4.091c.033.093.066.178.106.271.767,1.983,1.632,4.018,2.393,5.776l3.734,3.384,3.965,3.3c5.175,4.362,14.117,12.042,18.73,16.741C995.99,345.587,997.259,361.674,997.642,373.788Z" transform="translate(-344.944 -136.5)" opacity="0.1"/><path d="M924.627,280.371c.945-1.923,1.414-4.078,2.545-5.9,1.659-2.644,4.554-4.336,7.528-5.36,7.766-2.677,24.176-6.563,29.08,0a14.307,14.307,0,0,0,3.1,3.7,23.013,23.013,0,0,0,3.364,1.513c3.126,1.467,5.122,4.666,6.186,7.931s1.381,6.768,2.161,10.132a74.5,74.5,0,0,0,4.494,12.471c2.055,4.8,4.236,9.775,8.2,13.165,5.413,4.626,6.609,11.176,11.632,16.252,5.948,6.027,5.756,15.974,2.69,23.872a6.554,6.554,0,0,0-.7,3.225,6.324,6.324,0,0,0,1.751,2.987l3.252,3.668a18.284,18.284,0,0,1-19.979-9.213c-1.1-2.181-1.837-4.692-3.728-6.246-1.692-1.388-3.965-1.718-6.074-2.34-6.953-2.062-12.782-8.413-13-15.657-.106-3.4.958-6.807.476-10.178a11.235,11.235,0,0,0-2.214-5.287c-1.818-2.373-4.56-3.965-6.041-6.609-2.5-4.421-.6-10.165-2.406-14.91-.555-1.454-1.665-2.908-3.219-3.02s-2.882,1.176-4.369,1.751c-3.093,1.2-6.437-.839-9.021-2.934s-5.5-4.474-8.79-4.005c-2.174.3-3.886,1.784-5.889,2.558-1.48.568-4.481,1.077-5.776-.172C917.145,289.247,923.483,282.724,924.627,280.371Z" transform="translate(-342.757 -128.782)" fill="#591d4b"/><path d="M991.695,359.931c-1.11-2.181-1.837-4.692-3.727-6.239-1.692-1.388-3.965-1.725-6.08-2.346-6.946-2.055-12.775-8.407-13-15.65-.106-3.4.958-6.814.482-10.185a11.3,11.3,0,0,0-2.214-5.254c-1.824-2.373-4.567-3.965-6.041-6.609-2.5-4.415-.6-10.158-2.412-14.91-.548-1.447-1.665-2.9-3.212-3.02s-2.888,1.183-4.369,1.758c-3.093,1.2-6.444-.846-9.021-2.934s-5.505-4.474-8.79-4.012c-2.174.311-3.893,1.791-5.889,2.558-1.48.568-4.488,1.084-5.783-.165-2.723-2.644,3.615-9.154,4.752-11.493.945-1.93,1.414-4.078,2.551-5.9.059-.1.126-.2.192-.3a10.493,10.493,0,0,0-2.174,2.472c-1.13,1.824-1.6,3.965-2.545,5.9-1.143,2.34-7.481,8.869-4.752,11.493,1.322,1.256,4.3.74,5.776.172,1.983-.773,3.714-2.254,5.889-2.558,3.3-.469,6.213,1.917,8.79,4.005s5.948,4.137,9.028,2.934c1.48-.575,2.776-1.87,4.362-1.751s2.644,1.566,3.219,3.02c1.8,4.745-.1,10.488,2.406,14.91,1.48,2.6,4.223,4.223,6.041,6.609a11.234,11.234,0,0,1,2.214,5.287c.482,3.371-.582,6.774-.476,10.178.218,7.27,6.047,13.595,13,15.657,2.1.621,4.382.952,6.074,2.34,1.9,1.553,2.644,4.065,3.727,6.246a18.284,18.284,0,0,0,19.979,9.213l-1.533-1.732A18.482,18.482,0,0,1,991.695,359.931Z" transform="translate(-342.684 -132.081)" opacity="0.1"/><path d="M955.387,354.546c-.866,1.322-3.344,8.089-5.413,14-1.936-.753-3.694-5.558-3.694-5.558L956.6,348.3C957.661,349.754,956.967,352.166,955.387,354.546Z" transform="translate(-351.939 -156.858)" opacity="0.1"/><path d="M955.987,353.949c-.866,1.322-3.344,8.089-5.413,14-1.936-.747-3.694-5.558-3.694-5.558L957.2,347.71C958.261,349.157,957.567,351.576,955.987,353.949Z" transform="translate(-352.143 -156.658)" fill="#dce7ff"/><path d="M866.862,448.921l-5.723-18.049a1.685,1.685,0,0,1,1.1-2.121h0a1.692,1.692,0,0,1,2.115,1.1l5.723,18.029-.568,3.774Z" transform="translate(-323.041 -184.113)" fill="#be8b87"/><path d="M861.82,429.3h0a1.692,1.692,0,0,1,2.121,1.1l5.723,18.029-.43,2.829.416.436.568-3.774-5.756-18.029a1.692,1.692,0,0,0-2.115-1.1h0a1.692,1.692,0,0,0-.879.661A2.3,2.3,0,0,1,861.82,429.3Z" transform="translate(-323.181 -184.126)" fill="#fff" opacity="0.1"/><path d="M822.6,400.158l3.212-1.018-.469,3.093-.1.681-.938-.978Z" transform="translate(-278.779 -135.35)" fill="#efc8c4"/><path d="M872.42,461.889a.661.661,0,0,1,.2-.172.291.291,0,0,1,.311,0,.82.82,0,0,1,.112.178.569.569,0,0,0,.41.271l-.1.661Z" transform="translate(-326.894 -195.303)" fill="#727a9c"/><path d="M861.13,441.7s11.48-.066,8.777,4.818a10.325,10.325,0,0,1-6.926,5.472Z" transform="translate(-323.065 -188.53)" fill="#ffb0b1"/></g></svg>